/* XPM */
static const char *computer_xpm[] = {
/* width height num_colors chars_per_pixel */
"    32    32        9            1",
/* colors */
". c #000000",
"# c #00007f",
"a c #0000ff",
"b c #007f00",
"c c #00ffff",
"d c #7f7f7f",
"e c #bfbfbf",
"f c None",
"g c #ffffff",
/* pixels */
"fffffffffddddddddddddddddddfffff",
"ffffffffdeeeeeeeeeeeeeeeegd.ffff",
"fffffffdgggggggggggggggggdd.ffff",
"ffffffdgeeeeeeeeeeeeeeeeedd.ffff",
"ffffffdgeddddddddddddddgedd.ffff",
"ffffffdge.............#gedd.ffff",
"ffffffdge.aaaaaaaaaaaa#gedd.ffff",
"ffffffdge.acaaaaaaaaaa#gedd.ffff",
"ffffffdge.acaaaaaaaaaa#gedd.ffff",
"ffffffdge.aaaaaaaaaaaa#gedd.ffff",
"ffffffdge.aaaaaaaaaaaa#gedd.ffff",
"ffffffdge.aaaaaaaaaaaa#gedd.ffff",
"ffffffdge.aaaaaaaaaaaa#gedd.ffff",
"ffffffdge.aaaaaaaaaaaa#gedd.ffff",
"ffffffdge##############gedd.ffff",
"ffffffdgegggggggggggggggedd.ffff",
"ffffffdgeeeeeeeeeeeeeeeeedd.ddff",
"ffffffdddddddddddddddddddd.dde.f",
"ffffff....................dded.f",
"ffffdddddddddddddddddddddddedd.f",
"fffdgggggggggggggggggggggggddd.f",
"fffdgeeeeeeeeeeeeeeeeeeeeeeddd.f",
"fffdgeeeeeeeeeeddddddddddeeddd.f",
"fffdgeebbeeeeee..........ddddddf",
"fffdgeeddeeeeeeeeeeeeeedeggedged",
"fffddd.gd.gd.gd.gd.gd.ddddddddd.",
"ffdgd.gd.gd.gd.gd.gd.dgggggggdd.",
"fdgd.dd.dd.dd.dd.dd.dgggggggddd.",
"dgggggggggggggggggggdeggggeddd.f",
"deeeeeeeeeeeeeeeeeeeddddddddd.ff",
"f...................deeeeed..fff",
"fffffffffffffffffffff......fffff"
};
