/* XPM */
static const char * LinuxODBC_xpm[] = {
"32 32 5 1",
" 	c None",
".	c #000000000000",
"X	c #FFFFD34C1861",
"o	c #96586DB6FFFF",
"O	c #00000000FFFF",
"                                ",
"            ........            ",
"         ...XXXXXXXX..          ",
"       ..XXXXXXXXXXXXX...       ",
"     ..XXXXXXXXXXXXX......      ",
"    ..XXXXXXXXXXXXXX.o.....     ",
"   ..XXXXXXXXXXXXXXX.ooooo....  ",
" . .XXXXXXXXXXXXXXXX.oooooooo.. ",
" ..XXXXXXXXXXXXXXXX.oooooooo..  ",
" .XXXXXXXXXXXXX..XX.ooooooooo.  ",
" .XXXXXXXXXX...  ...ooooooooo.  ",
"..XXXXXXXXX..      .oooooooooo. ",
"...XXXXXXXX.      .ooooooooooo. ",
"...XXXXXXXX..     ....oooooooo. ",
"...XXXX......        .oooooooo. ",
".O.........          .oooooooo. ",
".OOOOOOOOO.          .oooooooo. ",
".OOOOOOOOO.         ..oooooooo. ",
" .OOOOOOOOO.        .ooooooooo. ",
" .OOOOOOOOO..   .  ..ooooooooo. ",
" .OOOOOOOOOO... .....oooooooo.  ",
"  .OOOOOOOOOOOO.OO...oooooooo.  ",
"  .OOOOOOOOOOOOOOOO..ooooooo..  ",
"   .OOOOOOOOOOOOOOOO..oooooo.   ",
"   ..OOOOOOOOOOOOOOOO..oooo.    ",
"    ..OOOOOOOOOOOOOOOO.ooo.     ",
"     ..OOOOOOOOOOOOOO.ooo.      ",
"       ..OOOOOOOOOOO.o...       ",
"         ...OOOOOOO...          ",
"            ....OO..            ",
"                ..              ",
"                .               "};
