<?xml version="1.0" encoding="UTF-8" standalone="no"?>
<!-- Created with Inkscape (http://www.inkscape.org/) -->

<svg
   xmlns:dc="http://purl.org/dc/elements/1.1/"
   xmlns:cc="http://creativecommons.org/ns#"
   xmlns:rdf="http://www.w3.org/1999/02/22-rdf-syntax-ns#"
   xmlns:svg="http://www.w3.org/2000/svg"
   xmlns="http://www.w3.org/2000/svg"
   version="1.1"
   width="20"
   height="30"
   id="svg2985">
  <defs
     id="defs2987" />
  <metadata
     id="metadata2990">
    <rdf:RDF>
      <cc:Work
         rdf:about="">
        <dc:format>image/svg+xml</dc:format>
        <dc:type
           rdf:resource="http://purl.org/dc/dcmitype/StillImage" />
        <dc:title></dc:title>
      </cc:Work>
    </rdf:RDF>
  </metadata>
  <g
     transform="translate(0,14)"
     id="layer1">
    <path
       d="m -1511.1882,-22.440125 a 351.53308,375.77673 0 1 1 -703.0662,0 351.53308,375.77673 0 1 1 703.0662,0 z"
       transform="matrix(0.02544182,0,0,0.02714551,57.454882,-3.2450887)"
       id="path3010"
       style="fill:#008000;fill-opacity:1;fill-rule:nonzero;stroke:none" />
    <path
       d="m -1337.442,995.79364 -342.9286,-593.96969 685.85714,-2e-5 z"
       transform="matrix(0.02334406,0,0,0.02578111,41.263574,-9.6657936)"
       id="path3780"
       style="fill:#008000;fill-opacity:1;fill-rule:nonzero;stroke:none" />
    <path
       d="m -1511.1882,-22.440125 a 351.53308,375.77673 0 1 1 -703.0662,0 351.53308,375.77673 0 1 1 703.0662,0 z"
       transform="matrix(0.00775691,0,0,0.00724482,24.449947,-5.4161389)"
       id="path3010-5"
       style="fill:#ffff00;fill-opacity:1;fill-rule:nonzero;stroke:none" />
  </g>
</svg>
