/* XPM */
static const char *xpmAbout[]={
"48 48 515 2",
".# c #000000",
"fz c #070000",
"fp c #0b0b0b",
"c7 c #0e0000",
"dU c #0e0b01",
"ga c #0e0c01",
"af c #0f0e01",
"bt c #110100",
".q c #110200",
"cV c #120b0b",
"#f c #150000",
"dV c #160000",
"a5 c #171717",
"cf c #180a0a",
"fX c #181818",
"e9 c #1a170c",
"at c #1a190c",
"fm c #1c1402",
"ex c #1c1502",
"ca c #1d0000",
"g. c #1d1802",
"bH c #1e0000",
"eN c #1e1902",
".A c #1e1b02",
"cl c #1e1e1e",
"cb c #1f1d02",
"#W c #1f1e10",
"bD c #1f1f1f",
".F c #200802",
".R c #212121",
".r c #220401",
".w c #222222",
"du c #240000",
"bI c #262626",
"dj c #280802",
"ec c #2a2323",
"cZ c #2b0000",
".i c #2b2203",
".V c #2c2303",
".x c #2c2403",
".a c #2d2704",
"c4 c #2e0a0a",
"eZ c #2e2a04",
"#e c #2e2b04",
"ag c #2e2e2e",
".W c #2f0d03",
"d3 c #2f2f2f",
"dD c #300d03",
"d0 c #300e03",
".v c #303030",
"dL c #310401",
"#v c #363636",
".s c #370300",
"bm c #370b0b",
"ek c #382905",
"d7 c #392b05",
"el c #3a0000",
"eK c #3a2e05",
".t c #3b0000",
"eh c #3b3105",
"g# c #3b3205",
"d4 c #3b3305",
".S c #3c3605",
"ed c #3d0702",
"c0 c #3d0d03",
"fW c #3d3705",
"#y c #3d3805",
"b3 c #3d3d3d",
"#d c #3e3a05",
"fY c #3e3e3e",
"be c #400401",
"#P c #414141",
".u c #431818",
"dz c #470902",
"eR c #473706",
"cN c #480000",
".h c #483906",
"fy c #490000",
"dS c #4b4206",
"dp c #4c0d03",
".B c #4c4406",
"c8 c #4d4707",
"dg c #4d4807",
"dk c #4d4d4d",
"fe c #4e4e4e",
"fN c #4f0000",
"fH c #505050",
"di c #511004",
"f0 c #513434",
"bs c #530702",
"co c #535353",
"c9 c #541305",
"dP c #541806",
"e6 c #554007",
"bA c #570000",
"bV c #571505",
"ev c #574707",
"#c c #584907",
"bf c #594a4a",
"bd c #5a1204",
".z c #5a4f08",
"bu c #5a5a5a",
"av c #5b5108",
"ff c #5c5408",
"f5 c #5c5508",
"dm c #5c5c5c",
"#Q c #5d5608",
"b2 c #5d5708",
"dH c #5d5d5d",
"bU c #5e0000",
"eg c #5e5e5e",
".G c #5f1605",
"dt c #601606",
"eb c #606060",
"b6 c #650000",
"fZ c #666666",
"cz c #672108",
"fE c #675609",
"cp c #682209",
".y c #685809",
"d8 c #690200",
"cv c #696969",
"f9 c #6b6109",
"au c #6b610a",
"cG c #6c6c6c",
"bG c #700200",
"ee c #702209",
".Q c #737373",
"#C c #740000",
"fM c #750000",
"cu c #750100",
"cE c #760100",
"bP c #760200",
"eO c #76630a",
"cI c #770200",
"#x c #77650b",
"fo c #77660a",
".L c #780300",
"fD c #78670b",
"#S c #78690b",
"fx c #790401",
"a# c #796c0b",
"c5 c #7a0401",
"ey c #7a2323",
"fC c #7a6c0b",
"fV c #7a6f0b",
"ft c #7b0501",
".4 c #7b0f0f",
"## c #7b7b7b",
"bp c #7c0601",
"eM c #7c0f0f",
"bc c #7c1605",
"e0 c #7c720b",
"ae c #7c740b",
"bn c #7c7c7c",
"fL c #7e0702",
"bF c #7f0802",
"e# c #7f1a1a",
"ea c #7f7070",
"bg c #7f7f7f",
"fK c #800902",
"dO c #802409",
"c3 c #810a02",
"bK c #811c1c",
"fw c #820a02",
"br c #830b03",
"dW c #840c03",
"eo c #841e1e",
"cg c #842b0b",
"#H c #850c03",
"bz c #851f1f",
"c2 c #860d03",
"dy c #86710c",
"dR c #873030",
"aR c #880f04",
"dF c #883838",
"aB c #890f04",
"c6 c #891004",
".b c #897c0c",
"bL c #8a1004",
"fB c #8a800c",
"fq c #8a8a8a",
"en c #8b1004",
"#g c #8b260a",
"ap c #8b2d2d",
"ez c #8b3434",
"eT c #8b8b8b",
"aY c #8c1104",
"bC c #8c830c",
"ct c #8d1204",
"aj c #8d1205",
".X c #8d270a",
"cL c #8d2d0c",
"dv c #8d5353",
"eY c #8d8d8d",
"bO c #8e1305",
"fd c #8e3e3e",
"db c #8e8e8e",
"cD c #8f1405",
".H c #8f1e08",
"eA c #8f3838",
"fl c #8f6c0c",
"bq c #901405",
"bl c #904040",
"dZ c #912a0b",
"fv c #921605",
"fc c #921606",
"bJ c #924242",
".K c #931706",
"d1 c #932c0c",
"ba c #941706",
"bb c #941806",
"eU c #943d3d",
"cU c #945353",
"em c #951806",
"b# c #961906",
"eX c #963f3f",
"b1 c #971906",
"fu c #971907",
"f. c #979797",
"fG c #98880d",
"dI c #98890d",
".J c #9a1c07",
"dE c #9a2109",
"a. c #9a8d0e",
"eG c #9b1c07",
"#z c #9b900e",
"ay c #9b910e",
"aI c #9c1d07",
"bM c #9c1d08",
"fJ c #9c4c4c",
"bN c #9d1e08",
"c# c #9e1e08",
"e. c #9e1f08",
"eu c #9e9e9e",
".I c #9f1f08",
"c1 c #a02008",
"d9 c #a12008",
"b. c #a12108",
"ep c #a25959",
"ci c #a32209",
".3 c #a42309",
"cy c #a4a4a4",
"#m c #a55c5c",
"aJ c #a56363",
"cY c #a62409",
"aV c #a7250a",
"cM c #a8260a",
"by c #a85f5f",
"fO c #a8990f",
"aU c #a9260a",
"dM c #a9270a",
"eB c #a96868",
"#T c #a9990f",
"cc c #a9a9a9",
"aW c #aa270a",
"dC c #aa2d0c",
"aZ c #aa7777",
"dn c #aa9e0f",
"dl c #aaaaaa",
"fa c #ab280a",
"bQ c #ab9f0f",
"cj c #aba00f",
"#u c #ababab",
"eL c #ac290b",
"fR c #acacac",
"aT c #ad290b",
"eF c #ad7b7b",
"aX c #ae2a0b",
"as c #aeaeae",
"b0 c #af2b0b",
"ef c #af350e",
"cO c #af6d6d",
"a9 c #af7575",
"da c #b02c0b",
"bk c #b07e7e",
"eS c #b0900f",
"bT c #b09393",
".M c #b18585",
"f6 c #b1930f",
".2 c #b22d0c",
"fb c #b32d0c",
"aS c #b32e0c",
"cT c #b38f8f",
"e7 c #b39910",
".P c #b3b3b3",
"et c #b49797",
"dw c #b4b4b4",
"c. c #b52f0c",
"ds c #b5300c",
"eC c #b57b7b",
"cn c #b5b5b5",
".1 c #b6300d",
"fn c #b6a310",
"b5 c #b6b6b6",
"aO c #b7a610",
"#w c #b8a811",
"e1 c #b8a911",
".0 c #b9320d",
"fA c #b9ac11",
"#O c #b9b9b9",
"aF c #ba330d",
"dQ c #ba330e",
"bE c #ba9d9d",
"bR c #baae11",
"#X c #bababa",
".Z c #bb330d",
".Y c #bb340e",
"aE c #bc340e",
"bo c #bc9898",
"a7 c #bcbcbc",
"aG c #bd350e",
"#. c #bdbdbd",
"cC c #be360e",
"cF c #bebebe",
"ao c #bf360e",
"aD c #bf370e",
"dX c #c0370f",
"dG c #c0c0c0",
"aH c #c1380f",
"cW c #c13d10",
"e8 c #c1a111",
"d# c #c2380f",
"bZ c #c2390f",
"f1 c #c2a511",
"cx c #c2c2c2",
"eW c #c33a0f",
"a4 c #c3c3c3",
"dr c #c43a0f",
"aQ c #c49898",
"aC c #c53b0f",
"#l c #c53b10",
"cS c #c5a8a8",
"#t c #c5c5c5",
"eV c #c63c10",
"f8 c #c6b112",
"aa c #c6b212",
"dx c #c6c6c6",
"b9 c #c73c10",
"eJ c #c79511",
"dh c #c7b512",
"b4 c #c7c7c7",
"bW c #c83d10",
"bx c #c89c9c",
"eq c #c8abab",
".O c #c8c8c8",
"#k c #c93e10",
"b7 c #c94312",
".c c #c9ba12",
"bB c #c9bc12",
"aN c #c9c9c9",
"#h c #ca3e10",
"d. c #ca3f11",
"#A c #cabd12",
".9 c #cacaca",
"#j c #cb3f11",
"ah c #cbcbcb",
"#i c #cc4011",
".E c #cca512",
"dd c #ccafaf",
"#9 c #cccccc",
"dY c #cd4011",
"am c #cd4111",
".g c #cda812",
"dc c #cdbebe",
"fI c #cdcdcd",
"cs c #ce4111",
"dK c #ceaa12",
"es c #cecece",
"al c #cf4211",
"cB c #cf4212",
"an c #cf4312",
"ce c #cfcfcf",
"dB c #d04312",
"cR c #d0b3b3",
".N c #d0d0d0",
"bY c #d14412",
"fs c #d1adad",
"bS c #d1d1d1",
"ak c #d24412",
"dA c #d24512",
"eD c #d2adad",
"#I c #d2aeae",
"#s c #d2d2d2",
"#G c #d34512",
"cP c #d3afaf",
"fr c #d3d3d3",
"dq c #d44613",
"e2 c #d4bb13",
"fS c #d4c6c6",
".8 c #d4d4d4",
"b8 c #d54613",
"#1 c #d54713",
"de c #d5b8b8",
"#a c #d5be13",
"er c #d5d5d5",
"#F c #d64713",
"d2 c #d64813",
"a3 c #d6d6d6",
"#D c #d74813",
"bj c #d7c1c1",
"f# c #d7d7d7",
"ch c #d84813",
"#E c #d84913",
"cQ c #d8bbbb",
"fQ c #d8c814",
"#N c #d8d8d8",
"cX c #d94913",
"cr c #d94a13",
"aA c #d9bcbc",
"ad c #d9cb14",
"a0 c #d9d9d9",
"cA c #da4a14",
"cH c #da4b14",
"eH c #daae13",
"aM c #dadada",
"bX c #db4b14",
"eP c #dbb113",
"#8 c #dbdbdb",
"dN c #dc4b14",
"cq c #dc4c14",
"ai c #dcbfbf",
".7 c #dcdcdc",
"#Z c #dd4c14",
"#0 c #dd4d14",
"#r c #dddddd",
"cd c #dedede",
"a1 c #dfdfdf",
"cK c #e0e0e0",
"bh c #e1e1e1",
".C c #e2c614",
"ew c #e3a914",
"e5 c #e3aa14",
"bw c #e3d4d4",
".6 c #e3e3e3",
"eI c #e4ad14",
"cw c #e4e4e4",
"ej c #e5af14",
"#q c #e5e5e5",
"eQ c #e6b114",
"#7 c #e6e6e6",
"d6 c #e7b514",
"a6 c #e7d415",
"cm c #e7e7e7",
"fk c #e8b614",
"fg c #e8d615",
".5 c #e8e8e8",
"dT c #e9bc15",
"ck c #e9da15",
"bv c #e9e9e9",
"ei c #eabc15",
".p c #eabe15",
"#Y c #eadbdb",
"bi c #eaeaea",
"e4 c #ebc015",
"az c #ebebeb",
"fj c #ecc215",
"d5 c #ecc315",
".U c #ecc415",
"#p c #ececec",
"f7 c #edc815",
"eE c #eddede",
"a2 c #ededed",
".D c #eec815",
".j c #eec915",
".o c #eeca15",
"cJ c #eeeeee",
".f c #efca15",
"e3 c #efcc15",
"#b c #efcd15",
"#6 c #efefef",
"dJ c #f0d016",
"a8 c #f0f0f0",
".T c #f1d116",
".k c #f1d216",
"#o c #f1f1f1",
".e c #f2d516",
"f2 c #f2d616",
"#M c #f2f2f2",
"fT c #f3d716",
"fi c #f3d816",
"#2 c #f3ecec",
"do c #f4da16",
"f3 c #f4db16",
"#R c #f4dd16",
"df c #f4eded",
"aq c #f4f4f4",
".l c #f5dc16",
"fU c #f5de16",
"fF c #f5df16",
"#n c #f5f5f5",
".d c #f6df16",
".n c #f6e016",
"aw c #f6e116",
"fh c #f6e216",
"#5 c #f6f6f6",
"f4 c #f7e316",
"fP c #f7e416",
"ab c #f7e417",
".m c #f7e517",
"#L c #f7f7f7",
"#U c #f8e517",
"aP c #f8e617",
"ax c #f8e717",
"ac c #f8e817",
"ar c #f8f8f8",
"#V c #f9e817",
"#B c #f9e917",
"aL c #f9f9f9",
"#K c #fafafa",
"aK c #fbfbfb",
"#J c #fcfcfc",
"#3 c #fdfdfd",
"#4 c #fefefe",
"Qt c none",
"QtQtQtQtQtQtQtQtQtQtQtQtQtQtQtQtQtQtQtQtQtQtQtQtQtQtQtQtQtQtQtQtQtQtQtQtQtQtQtQtQtQtQtQtQtQtQtQt",
"QtQtQtQtQtQtQtQtQtQtQtQtQtQtQtQtQtQtQtQtQtQtQtQtQtQtQtQtQtQtQtQtQtQtQtQtQtQtQtQtQtQtQtQtQtQtQtQt",
"QtQtQtQtQtQtQtQtQtQtQtQtQtQtQtQtQtQtQtQtQtQtQtQtQtQtQtQtQtQtQtQtQtQtQtQtQtQtQtQtQtQtQtQtQtQtQtQt",
"QtQtQtQtQtQtQtQtQtQtQtQtQtQtQtQtQtQtQtQtQtQtQtQtQtQtQtQtQtQtQtQtQtQtQtQt.#.#QtQtQtQtQtQtQtQtQtQt",
"QtQtQtQtQtQtQtQtQtQtQtQtQtQtQtQtQtQtQtQtQtQtQtQtQtQtQtQtQtQtQtQt.a.b.c.d.e.f.g.hQtQtQtQtQtQtQtQt",
"QtQtQtQtQtQtQtQtQtQtQtQtQtQtQtQtQtQtQtQtQtQtQtQtQtQtQtQtQtQt.i.g.j.k.l.m.n.e.o.p.hQtQtQtQtQtQtQt",
"QtQtQtQtQtQtQtQtQtQtQtQtQtQtQtQtQtQtQtQtQtQtQtQtQt.q.r.s.t.u.v.w.x.y.z.A.#.B.C.D.EQtQtQtQtQtQtQt",
"QtQtQtQtQtQtQtQtQtQtQtQtQtQtQtQtQtQtQtQtQtQt.F.G.H.I.J.K.L.M.N.O.P.Q.RQtQtQt.S.T.U.VQtQtQtQtQtQt",
"QtQtQtQtQtQtQtQtQtQtQtQtQtQtQtQtQtQtQtQt.W.X.Y.Z.0.1.2.3.4.5.6.7.8.9#.##QtQtQt#a#b#cQtQtQtQtQtQt",
"QtQtQtQtQtQtQtQtQtQtQtQt.##d#d#d#e.##f#g#h#i#i#i#j#k#l.J#m#n#o#p#q#r#s#t#u#vQt#w.e#xQtQtQtQtQtQt",
"QtQtQtQtQtQtQtQt#y#z#A#B#B#B#B#A#e###C#k#D#E#E#E#E#F#G#H#I#J#K#L#M#p.6#N.9#O#P#Q#R#SQtQtQtQtQtQt",
"QtQtQtQtQtQtQt#T#U#V#B#B#B#B#A#W#X#Y#C#Z#0#0#Z#Z#Z#0#1#C#2#3#4#3#K#5#6#7#8#9#X#va.a#QtQtQtQtQtQt",
"QtQtQtQtQtQtaaabacadae#daf.#agah#3aiaj#Dakalamaman#Gaoapaq#L#K#3#4#Jar#o.5#8#9asatauQtQtQtQtQtQt",
"QtQtQtQtQtavawaxayQtQtQtQtQtaz#4#3aAaBaCaDaEaFaFaGaHaIaJ.5#p#o#LaK#4#3aL#M.5aMaN.Q.#QtQtQtQtQtQt",
"QtQtQtQtQtaOaPadQtQtQtQtQt#9#4#3araQaRaSaTaUaVaVaWaXaYaZa0a1#7a2aq#K#4#3aL#o#qa3a4a5QtQtQtQtQtQt",
"QtQtQtQtQta6acaeQtQtQtQta7#4#3#La8a9ajb..Jb#babbbcbdbebfbga4#Nbhbi#MaL#4#3#LbjbkblbmQtQtQtQtQtQt",
"QtQtQtQtQt.m#VaeQtQtQtbn#3#4ara8#7bobpbqaRbrbsbtQtQtQtQtQtQtbu.8a1bvbwbxbybz#C#C#CbAQtQtQtQtQtQt",
"QtQtQtQtQtbB#BbCQtQtbDaK#4#K#M.5.7bE.LbFbGbHQtQtQtQtQtQtQtQtQtbIbJbK#CbLbMbNbObP#C#CQtQtQtQtQtQt",
"QtQtQtQtQtbQ#BbRQtQt#X#3#3#5aza1bSbT#CbUQtQtQtQtQtQtQtQtQtQtQtQtbVbWbXbYbZb0b1bp#C#C.#QtQtQtQtQt",
"QtQtQtQtQtb2#B#BQtb3aK#4#K#o#qa3b4b5b6QtQtQtQtQtQtQtQtQtQtQtQtQtQtb7#Zb8b9c.c#br#C#CcaQtQtQtQtQt",
"QtQtQtQtQtcb#B#B#dcc#J#3#L#pcdce#.#ucfQtQtQtQtQtQtQtQtQtQtQtQtQtQtcg#0ch#jaFciaB#C#CcaQtQtQtQtQt",
"QtQtQtQtQtQtcjckcl#L#3#Jaqcm#Nb4cncoQtQtQtQtQtQtQtQtQtQtQtQtQtQtQtcpcqcrcsaGaVctcu#C.#QtQtQtQtQt",
"QtQtQtQtQtQtb2aycvaL#4aK#ocw.8cxcyQtQtQtQtQtQtQtQtQtQtQtQtQtQtQtQtczbXcAcBcCaUcDcE#CQtQtQtQtQtQt",
"QtQtQtQtQtQtQt#da4#K#4#K#6bhbScFcGQtQtQtQtQtQtQtQtQtQtQtQtQtQtQtQtczbXcHanaDaWcDcIbUQtQtQtQtQtQt",
"QtQtQtQtQtQtQt.#a8#K#4aLcJcK.N#.#vQtQtQtQtQtQtQtQtQtQtQtQtQtQtQtQtcLbXcAalcCcMbOcEcNQtQtQtQtQtQt",
"QtQtQtQtQtQtQtcaapcOcPcQcRcScTcUcVQtQtQtQtQtQtQtQtQtQtQtQtQtQtQtQtcW#ZcXamaEcYaYcucZQtQtQtQtQtQt",
"QtQtQtQtQtQtQtc0cYc1ctbObLc2c3c2.#QtQtQtQtQtQtQtQtQtQtQtQtQtQtQtc4#C#Cc5c6#H#C#C#Cc7c8QtQtQtQtQt",
"QtQtQtQtQtQtQtc9.0d.#D#0#Gd#dac1.#QtQtQtQtQtQtQtQtQtQtQtQtQtQtQtdbb5aNdcdddedf#3#OdgdhQtQtQtQtQt",
"QtQtQtQtQtQtQtdi.2#l#GbXcAd.aFaWdjQtQtQtQtQtQtQtQtQtQtQtQtQtQtdkdl#.cea1#p#L#4#Jdmdndo.aQtQtQtQt",
"QtQtQtQtQtQtQtdpaWcCam#E#0dqdrdsdtQtQtQtQtQtQtQtQtQtQtQtQtQtdudvdwdxa3cw#o#K#4#8.#a6.edyQtQtQtQt",
"QtQtQtQtQtQtQtdzc1c.#ldAbXcqdBbZdCQtQtQtQtQtQtQtQtQtQtQtQtdDdEdFdGcecdbi#n#3#3dHQtdIdJdKQtQtQtQt",
"QtQtQtQtQtQtQtdL.KdMaEd.#1dNbXdBdrdOQtQtQtQtQtQtQtQtQtQtdPb9dQdR#9a0#7#o#K#4#.QtQtdS.odTdUQtQtQt",
"QtQtQtQtQtQtQtdVdWaIb0dXdY#Fcqcq#G#kdZc7QtQtQtQtQtQtd0d1#i#Fd2#C#NcwcJ#L#3cJd3QtQtd4d5d6d7QtQtQt",
"QtQtQtQtQtQtQtQtd8aYd9aSaHam#1bX#ke.bFe#eaebecedeeef#i#GbX#0cA#Ccwa2#n#J#4egQtQtQteheiejekQtQtQt",
"QtQtQtQtQtQtQtQtelc5bLememaIenc5eoepeq.7eresetaY#FcXcq#0bX#DbY#CcJ#5aK#4euQtQtQtQtevd6ewexQtQtQt",
"QtQtQtQtQtQtQtQtc7eyezeAeBeCeDeEaK#5a8bv.6cdeFeG#ZcqcA#D#G#idr#C#L#J#4euQtQtQtQtQteHeIeJQtQtQtQt",
"QtQtQtQtQtQtQtQteKdmb4#N#7a8ar#J#4#3aLaqa8#pa9.3dqdAcB#j#laGeLeM#3#4eu.#QtQteNeOePeQeweRQtQtQtQt",
"QtQtQtQtQtQtQtQteS.VeTaNa0#7#6#5aK#4#4#J#K#LeUaVeVeWaDaFaSaWemeX#3eYeZe0e1e2e3e4d6e5e6QtQtQtQtQt",
"QtQtQtQtQtQtQtQte7e8e9f.aNf#.6a2aqaL#J#3#4#4eMfafbb0fa.3aIfcc3fdfefffgfhfi#bfjfkflfmQtQtQtQtQtQt",
"QtQtQtQtQtQtQtQtfn.kfofpfqdxfra1.5#6aqar#KfsftbM.JfufvenfwfxfyfzfffAfBfCfDfEeKQtQtQtQtQtQtQtQtQt",
"QtQtQtQtQtQtQtQtfAfFfGQtQtfHcnfI#NcKcma2#ofJc5fKfLft.LfMfN#fQtQtQtQtQtQtQtQtQtQtQtQtQtQtQtQtQtQt",
"QtQtQtQtQtQtQtQtfOfPfQQtQtQtQtcofResa3#rfS#C#C#C#CbUelc7QtQtQtQtQtQtQtQtQtQtQtQtQtQtQtQtQtQtQtQt",
"QtQtQtQtQtQtQtQt.zfTfUa.afafc8fVfWfXfYfZf0elelcac7QtQtQtQtQtQtQtQtQtQtQtQtQtQtQtQtQtQtQtQtQtQtQt",
"QtQtQtQtQtQtQtQtQtf1dJf2f3.nf4.m.mabf5.#QtQtQtQtQtQtQtQtQtQtQtQtQtQtQtQtQtQtQtQtQtQtQtQtQtQtQtQt",
"QtQtQtQtQtQtQtQtQtQtf6f7#b.T.ef8f9QtQtQtQtQtQtQtQtQtQtQtQtQtQtQtQtQtQtQtQtQtQtQtQtQtQtQtQtQtQtQt",
"QtQtQtQtQtQtQtQtQtQtQtg.ehg#gaQtQtQtQtQtQtQtQtQtQtQtQtQtQtQtQtQtQtQtQtQtQtQtQtQtQtQtQtQtQtQtQtQt",
"QtQtQtQtQtQtQtQtQtQtQtQtQtQtQtQtQtQtQtQtQtQtQtQtQtQtQtQtQtQtQtQtQtQtQtQtQtQtQtQtQtQtQtQtQtQtQtQt",
"QtQtQtQtQtQtQtQtQtQtQtQtQtQtQtQtQtQtQtQtQtQtQtQtQtQtQtQtQtQtQtQtQtQtQtQtQtQtQtQtQtQtQtQtQtQtQtQt"};
