/* XPM */
static const char *xpmAdvanced[]={
"48 48 389 2",
"Qt c None",
".D c #000000",
"e. c #06090c",
".C c #090909",
".E c #0b0f14",
".c c #0d1115",
".j c #0f151d",
"cH c #140000",
"#N c #161c22",
".F c #171f29",
"#t c #191919",
"e# c #192633",
"d5 c #1d0000",
"bl c #1f0000",
"#0 c #1f0b08",
"ec c #1f2f3f",
"a6 c #200000",
".w c #202428",
"aN c #210000",
"#o c #222b32",
".G c #222d38",
"#F c #25354b",
"ea c #26394c",
"#u c #283442",
"b8 c #290000",
"#n c #293337",
"#Z c #2a0000",
".P c #2a497e",
"#h c #2d4b80",
"bm c #2f0a07",
"#R c #2f0b08",
"at c #2f120d",
".t c #304e82",
".O c #315083",
".8 c #334b6e",
"eb c #334c66",
"#x c #335285",
"d4 c #340000",
".# c #344046",
"#w c #345285",
".b c #354452",
".s c #365587",
"#m c #374349",
".i c #395172",
"dS c #3e0000",
".v c #40556c",
".9 c #415a78",
"#J c #425057",
".H c #435563",
"#G c #466388",
".Q c #476795",
".a c #485a67",
"c1 c #490000",
"#v c #496790",
".Z c #496996",
".u c #4a6a97",
".m c #4c4c49",
".7 c #4c6c98",
"#l c #4e5e66",
"co c #4f0000",
"#y c #4f6f9a",
".N c #51719c",
".I c #52646e",
".h c #53739d",
".r c #53749e",
"#. c #567089",
"#Y c #580000",
"dT c #590000",
".k c #595959",
".0 c #5d7da5",
".Y c #5d7ea5",
"bP c #5f0b08",
"a7 c #5f1b14",
"aO c #5f2117",
".6 c #6182a9",
"as c #620000",
"#H c #6385ab",
".B c #646a65",
".n c #647a83",
".g c #6688ad",
"dz c #6699cc",
"dO c #679acc",
"d2 c #679acd",
"d9 c #680000",
".R c #698baf",
"de c #699cce",
"ab c #6a0000",
"d1 c #6a9dce",
"dY c #6b9ecf",
"#X c #6d0200",
"dN c #6da0d1",
"#g c #6e90b3",
"dZ c #6ea1d1",
"#S c #6f150f",
"#T c #700a05",
"#z c #7092b4",
"d0 c #70a2d2",
"di c #720000",
".x c #727272",
".M c #7395b7",
"dy c #73a6d4",
"## c #748fa2",
".q c #7497b8",
"cY c #74a6d4",
"dM c #75a8d5",
"dd c #75a8d6",
"d7 c #767299",
"dX c #777499",
".1 c #799bbc",
".X c #799cbc",
"d8 c #7a698c",
"dJ c #7cafda",
"bO c #7d0000",
".5 c #7ea1bf",
"dx c #7eb0db",
"dL c #80b3dc",
"dK c #81b3dd",
".f c #82a5c2",
"dc c #82b5de",
"cX c #83b5de",
"cD c #849bc0",
"#f c #84a3ba",
"dP c #864c66",
".d c #86a2af",
"dw c #87b9e1",
"cI c #8b0000",
"#Q c #8b3d09",
".S c #8bafca",
"dA c #8e394c",
"db c #8ec0e5",
"cC c #8ec1e5",
"#1 c #8f3022",
"ac c #8f3828",
"dI c #8f556b",
"ds c #8fc1e6",
"#i c #90b4ce",
"#I c #91b4c9",
"#A c #91b5cf",
"cW c #91c3e7",
"dR c #920000",
"ck c #93819b",
"dv c #93c5e8",
"dt c #93c6e8",
".L c #95b9d2",
"d6 c #960000",
"df c #962633",
".p c #96bbd3",
"du c #96c8ea",
"aM c #980000",
"dr c #985e71",
".W c #98bdd4",
"da c #98caeb",
"cj c #98cbeb",
".l c #999897",
"bx c #9c0000",
"#k c #9cbdcc",
".4 c #9dc2d8",
"cV c #9dd0ef",
"b2 c #9e5665",
"cB c #9ed0ef",
"bk c #9f0000",
".e c #a0c5da",
"d# c #a0d2f0",
"b1 c #a1d3f1",
"cZ c #a2090c",
"c9 c #a3404a",
"#O c #a4561a",
"bL c #a5191d",
"d. c #a6d8f4",
"bK c #a6d9f4",
"an c #a70000",
"a0 c #a70e0f",
"cR c #a7292e",
".2 c #a7cbdb",
"b7 c #a80000",
"#9 c #a80e0f",
"bw c #a90000",
"ci c #a9dbf6",
"bv c #aa0000",
"bg c #aa626d",
"bu c #aab4c9",
"d3 c #ab0000",
"#5 c #ab0f0f",
"dB c #ac0000",
"ah c #ac0f0f",
"cA c #acdef8",
"cG c #ad0000",
"dQ c #ae0000",
"#j c #aed4e6",
"cn c #af0000",
"#B c #afd5e6",
"dh c #b00000",
"#W c #b02b00",
"b6 c #b10000",
"aG c #b1757f",
".T c #b1c8d4",
".K c #b1d6e8",
".o c #b1d7e8",
"bN c #b20000",
"aU c #b21f1f",
".3 c #b2d8e9",
"bj c #b30000",
".J c #b3d9ea",
"b0 c #b3e4fb",
"c2 c #b40000",
"cS c #b4e5fc",
"dU c #b50000",
"cF c #b60000",
"#a c #b6cdd8",
"aH c #b70000",
"az c #b7120d",
"bG c #b72f2f",
"cm c #b90000",
"dg c #ba0000",
"b5 c #bb0000",
"a5 c #bc0000",
"#8 c #bd959f",
"b3 c #be0000",
"#U c #be3104",
"ch c #beeafe",
"ar c #bf0000",
"bJ c #bfeafe",
"aa c #c00000",
"am c #c0c1cf",
"aZ c #c0ddee",
"c0 c #c10000",
"cl c #c20000",
"bc c #c2281d",
"aL c #c40000",
"a4 c #c50000",
"cU c #c5edfe",
"bi c #c60000",
"#b c #c6e1de",
"cT c #c6edfe",
"bt c #c7edfe",
"bf c #c7eefe",
"cE c #c80000",
"bV c #c82a1e",
"bM c #cb0000",
"#V c #cb5102",
"dj c #cc0000",
"b4 c #cd0000",
"dH c #cd0302",
"aK c #ce0000",
"a3 c #cf0000",
"by c #cf281c",
"bh c #d00000",
"bW c #d07e7f",
"dC c #d10000",
"#e c #d1b57c",
"a. c #d20000",
"dq c #d30c09",
"aq c #d50000",
"bZ c #d5f2ff",
"a1 c #d60000",
"aJ c #d70000",
"cx c #d7f2ff",
"aA c #d88f8f",
"#6 c #d8babf",
"a2 c #d90000",
"aF c #d9f3ff",
"#7 c #dbf4ff",
"cg c #dcf4ff",
"ce c #ddbbbf",
"ap c #de0000",
"c8 c #de1c14",
"#4 c #de241a",
"bF c #de4f39",
"ao c #df0000",
"b9 c #df0f0b",
"#2 c #df4431",
"al c #e0f5ff",
"aI c #e10000",
"#M c #e18b03",
"#E c #e18d13",
"#s c #e18e24",
".A c #e2eed7",
"cz c #e2f6ff",
"aT c #e3523b",
"bI c #e3f6ff",
"a# c #e40000",
"aY c #e5f7ff",
".U c #e7f2ec",
"cy c #e8f8ff",
"cQ c #e92f22",
"ag c #e93f2d",
"be c #e9f8ff",
"ai c #eacdcf",
"#K c #ecb658",
"bY c #edf9ff",
"bn c #ef412f",
"au c #ef6146",
"aE c #effaff",
"dk c #f00000",
"#C c #f0c479",
"#p c #f0c793",
"ak c #f0faff",
"dV c #f30000",
"dD c #f40000",
"bs c #f4dfdf",
".V c #f5f6ce",
"cf c #f5fbff",
"bH c #f5fcff",
"dl c #f60000",
"aX c #f6fcff",
"c3 c #f70000",
"aj c #f7fcff",
"dW c #f80000",
"bX c #f8fcff",
"bd c #f8fdff",
"dE c #f90000",
"br c #f97f5c",
"aD c #f9fdff",
"#d c #faf28b",
"#P c #fbdd04",
"cJ c #fc0000",
"aC c #fcfeff",
"c4 c #fd0100",
"aB c #fdfeff",
"dF c #fe0302",
"dm c #fe0503",
"dG c #fe0504",
"cp c #fe0805",
"aW c #feffff",
"c5 c #ff0a07",
"cK c #ff0b08",
"dn c #ff0d09",
"do c #ff140e",
"c6 c #ff150f",
"cq c #ff1711",
"dp c #ff1811",
"cL c #ff1912",
"c7 c #ff1f16",
"c. c #ff2218",
"cM c #ff251b",
"cr c #ff261b",
"bQ c #ff2a1e",
"cN c #ff2f22",
"c# c #ff3224",
"cs c #ff3325",
"cO c #ff3728",
"bR c #ff3b2a",
"cP c #ff3d2b",
"ct c #ff3f2d",
"ca c #ff402e",
"bz c #ff422f",
"#3 c #ff4632",
"cu c #ff4833",
"bS c #ff4a35",
"cb c #ff4c37",
"cv c #ff4e38",
"cw c #ff503a",
"bA c #ff523b",
"bo c #ff563e",
"cc c #ff573e",
"a8 c #ff573f",
"bT c #ff5840",
"af c #ff5d43",
"cd c #ff5e44",
"bB c #ff6146",
"ae c #ff6347",
"ad c #ff6448",
"a9 c #ff674a",
"ay c #ff6b4d",
"bU c #ff6d4e",
"bC c #ff6f50",
"av c #ff7050",
"aP c #ff7151",
"ax c #ff7252",
"aw c #ff7453",
"b. c #ff7655",
"bD c #ff7a58",
"aQ c #ff7c59",
"aS c #ff7f5c",
"bE c #ff805c",
"aR c #ff825e",
"bp c #ff835f",
"b# c #ff845f",
"bb c #ff8963",
"bq c #ff8c65",
"ba c #ff8d66",
"#L c #ffeb1e",
"#D c #ffee40",
"#r c #fff163",
"#q c #fff484",
"#c c #fff7a6",
".z c #fffdea",
".y c #fffefd",
"aV c #ffffff",
"QtQtQtQtQtQtQtQtQtQtQtQtQtQtQtQtQtQtQtQtQtQtQtQtQtQtQtQtQtQtQtQtQtQtQtQtQtQtQtQtQtQtQtQtQtQtQtQt",
"QtQtQtQtQtQtQtQtQtQtQtQtQtQtQtQtQtQtQtQtQtQtQtQtQtQtQtQtQtQtQtQtQtQtQtQtQtQtQtQtQtQtQtQtQtQtQtQt",
"QtQtQtQtQtQtQtQtQtQtQtQtQtQtQtQtQtQtQtQtQtQtQtQtQtQtQtQtQtQtQtQtQtQtQtQtQtQtQtQtQtQtQtQtQtQtQtQt",
"QtQtQtQtQtQtQtQtQtQtQtQtQtQtQtQtQtQtQtQtQtQtQtQtQtQtQtQtQtQtQtQtQtQtQtQtQtQtQtQtQtQtQtQtQtQtQtQt",
"QtQtQtQtQtQtQtQtQtQtQtQtQtQtQtQtQtQtQtQtQtQtQtQtQtQtQtQtQtQtQtQtQtQtQtQtQtQtQtQtQtQtQtQtQtQtQtQt",
"QtQtQtQtQtQtQtQtQtQtQtQtQtQtQtQtQtQtQtQtQtQtQtQtQtQtQtQtQtQtQtQtQtQtQtQtQtQtQtQtQtQtQtQtQtQtQtQt",
"QtQtQtQtQtQtQtQtQtQtQtQtQtQtQtQtQtQtQtQtQtQtQtQtQtQtQtQtQtQtQtQtQtQtQtQtQtQtQtQtQtQtQtQtQtQtQtQt",
"QtQtQtQtQtQtQtQtQtQtQtQtQtQtQtQtQtQtQtQtQtQtQtQtQtQtQtQtQtQtQtQtQtQtQtQtQtQtQtQtQtQtQtQtQtQtQtQt",
"QtQtQtQtQtQtQtQtQtQtQtQtQtQtQtQtQtQtQtQtQtQtQtQtQtQtQtQtQtQtQtQtQtQtQtQtQtQtQtQtQtQtQtQtQtQtQtQt",
"QtQtQtQtQtQtQtQtQtQtQtQtQtQtQtQtQtQtQtQtQtQtQtQtQtQtQtQtQtQtQtQtQtQtQtQtQtQtQtQtQtQtQtQtQtQtQtQt",
"QtQtQtQtQtQtQtQtQtQtQtQtQtQtQtQtQtQtQtQtQtQtQtQtQtQtQtQtQtQtQtQtQtQtQtQtQtQtQtQtQtQtQtQtQtQtQtQt",
"QtQtQtQtQtQtQtQtQtQtQtQtQtQt.#.a.b.cQtQtQtQtQtQtQtQtQtQtQtQtQtQtQtQtQtQtQtQtQtQtQtQtQtQtQtQtQtQt",
"QtQtQtQtQtQtQtQtQtQtQtQtQt.d.e.f.g.h.i.jQtQtQt.k.l.mQtQtQtQtQtQtQtQtQtQtQtQtQtQtQtQtQtQtQtQtQtQt",
"QtQtQtQtQtQtQtQtQtQtQtQt.n.o.p.q.r.s.t.u.v.w.x.y.z.A.B.CQt.D.E.F.G.H.I.d.nQtQtQtQtQtQtQtQtQtQtQt",
"QtQtQtQtQtQtQtQtQtQtQtQt.J.K.L.M.N.O.P.Q.R.S.T.U.V.J.o.W.X.Y.Z.Z.0.1.W.o.2QtQtQtQtQtQtQtQtQtQtQt",
"QtQtQtQtQtQtQtQtQtQtQtQt.J.3.4.5.6.7.8.9#.###a#b#c#d#e#f#g.7#h#h.7#g#i#j#kQtQtQtQtQtQtQtQtQtQtQt",
"QtQtQtQtQtQtQtQtQtQtQtQt#l#m#n#o.DQtQtQtQtQt#p#c#q#r#s#t#u#v#w#x#y#z#A#B#mQtQtQtQtQtQtQtQtQtQtQt",
"QtQtQtQtQtQtQtQtQtQtQtQtQtQtQtQtQtQtQtQtQtQt#C#q#r#D#EQtQtQt#F#G#H.5#I#JQtQtQtQtQtQtQtQtQtQtQtQt",
"QtQtQtQtQtQtQtQtQtQtQtQtQtQtQtQtQtQtQtQtQtQt#K#r#D#L#MQtQtQtQtQt#N#oQtQtQtQtQtQtQtQtQtQtQtQtQtQt",
"QtQtQtQtQtQtQtQtQtQtQtQtQtQtQtQtQtQtQtQtQtQt#O#D#L#P#QQtQtQtQtQtQtQtQtQtQtQtQtQtQtQtQtQtQtQtQtQt",
"QtQtQtQtQtQtQtQtQtQtQtQtQtQtQtQtQtQtQtQt#R#S#T#U#V#W#X#Y#ZQtQtQtQtQtQtQtQtQtQtQtQtQtQtQtQtQtQtQt",
"QtQtQtQtQtQtQtQtQtQtQtQtQtQtQtQtQt#0#1#2#3#4#5#6#7#8#9a.a#aaabQtQtQtQtQtQtQtQtQtQtQtQtQtQtQtQtQt",
"QtQtQtQtQtQtQtQtQtQtQtQtQtQtQtQtacadaeafagahaiajakalamanaoapaqarasQtQtQtQtQtQtQtQtQtQtQtQtQtQtQt",
"QtQtQtQtQtQtQtQtQtQtQtQtQtQtatauavawaxayazaAaBaCaDaEaFaGaHaIaJaKaLaMaNQtQtQtQtQtQtQtQtQtQtQtQtQt",
"QtQtQtQtQtQtQtQtQtQtQtQtQtaOaeaPaQaRaSaTaUaVaVaWaCaXaYaZa0a1a2a3a4a5ana6QtQtQtQtQtQtQtQtQtQtQtQt",
"QtQtQtQtQtQtQtQtQtQtQtQta7a8a9b.b#babbbcaAaVaVaVaBbdbebfbga5a2bhbia5bjbkblQtQtQtQtQtQtQtQtQtQtQt",
"QtQtQtQtQtQtQtQtQtQtQtbmbnboa9b.bpbqbranbsaVaVaVaBbdbebtbubva2bhbia5bjbwbxQtQtQtQtQtQtQtQtQtQtQt",
"QtQtQtQtQtQtQtQtQtQtQtbybzbAbBbCbDbEbFbGaWaVaWaWaCbHbIbJbKbLbMa3a4a5bNbwanbOQtQtQtQtQtQtQtQtQtQt",
"QtQtQtQtQtQtQtQtQtQtbPbQbRbSbTadbUaPbVbWaCaBaBaCbXbYbZb0b1b2b3b4aLb5b6b7ananb8QtQtQtQtQtQtQtQtQt",
"QtQtQtQtQtQtQtQtQtQtb9c.c#cacbcccdbBazcebHbdbXcfbYcgchcicjckb6bMclcmcnanananbOQtQtQtQtQtQtQtQtQt",
"QtQtQtQtQtQtQtQtQtcocpcqcrcsctcucvcwancxbIcycyczbZchcAcBcCcDbwcEarcFcGanananancHQtQtQtQtQtQtQtQt",
"QtQtQtQtQtQtQtQtQtcIcJcKcLcMcNcOcPcQcRcSbJcTcUchb0cicVcWcXcYcZc0a5bjbvananananc1QtQtQtQtQtQtQtQt",
"QtQtQtQtQtQtQtQtQtc2c3c4c5c6c7crbQc8c9b1d.cicid.d#dadbdcdddedfdgcmdhb7anananandiQtQtQtQtQtQtQtQt",
"QtQtQtQtQtQtQtQtQtdjdkdlcJdmdndodpdqdrdsdtdududvcCdwdxdydedzdAc2c2dBananananandiQtQtQtQtQtQtQtQt",
"QtQtQtQtQtQtQtQtQtQt#YdCdDdEcJdFdGdHdIdJdKcXcXdLdJdMdNdOdzdzdPdQdhb7ananandRdSQtQtQtQtQtQtQtQtQt",
"QtQtQtQtQtQtQtQtQtQtQtQtdTdUdVdldWb5dXdYdZd0d0dNd1d2dzdzdzdzdPdBd3anandid4QtQtQtQtQtQtQtQtQtQtQt",
"QtQtQtQtQtQtQtQtQtQtQtQtQtQtd5dTd6bkd7dzdzdzdzdzdzdzdzdzdzdzd8dRd9dSQtQtQtQtQtQtQtQtQtQtQtQtQtQt",
"QtQtQtQtQtQtQtQtQtQtQtQtQtQtQtQtQtQte.e#eaebebebebebebebece#.DQtQtQtQtQtQtQtQtQtQtQtQtQtQtQtQtQt",
"QtQtQtQtQtQtQtQtQtQtQtQtQtQtQtQtQtQtQtQtQtQtQtQtQtQtQtQtQtQtQtQtQtQtQtQtQtQtQtQtQtQtQtQtQtQtQtQt",
"QtQtQtQtQtQtQtQtQtQtQtQtQtQtQtQtQtQtQtQtQtQtQtQtQtQtQtQtQtQtQtQtQtQtQtQtQtQtQtQtQtQtQtQtQtQtQtQt",
"QtQtQtQtQtQtQtQtQtQtQtQtQtQtQtQtQtQtQtQtQtQtQtQtQtQtQtQtQtQtQtQtQtQtQtQtQtQtQtQtQtQtQtQtQtQtQtQt",
"QtQtQtQtQtQtQtQtQtQtQtQtQtQtQtQtQtQtQtQtQtQtQtQtQtQtQtQtQtQtQtQtQtQtQtQtQtQtQtQtQtQtQtQtQtQtQtQt",
"QtQtQtQtQtQtQtQtQtQtQtQtQtQtQtQtQtQtQtQtQtQtQtQtQtQtQtQtQtQtQtQtQtQtQtQtQtQtQtQtQtQtQtQtQtQtQtQt",
"QtQtQtQtQtQtQtQtQtQtQtQtQtQtQtQtQtQtQtQtQtQtQtQtQtQtQtQtQtQtQtQtQtQtQtQtQtQtQtQtQtQtQtQtQtQtQtQt",
"QtQtQtQtQtQtQtQtQtQtQtQtQtQtQtQtQtQtQtQtQtQtQtQtQtQtQtQtQtQtQtQtQtQtQtQtQtQtQtQtQtQtQtQtQtQtQtQt",
"QtQtQtQtQtQtQtQtQtQtQtQtQtQtQtQtQtQtQtQtQtQtQtQtQtQtQtQtQtQtQtQtQtQtQtQtQtQtQtQtQtQtQtQtQtQtQtQt",
"QtQtQtQtQtQtQtQtQtQtQtQtQtQtQtQtQtQtQtQtQtQtQtQtQtQtQtQtQtQtQtQtQtQtQtQtQtQtQtQtQtQtQtQtQtQtQtQt",
"QtQtQtQtQtQtQtQtQtQtQtQtQtQtQtQtQtQtQtQtQtQtQtQtQtQtQtQtQtQtQtQtQtQtQtQtQtQtQtQtQtQtQtQtQtQtQtQt"};
