/* XPM */
static const char *xpmCanada[] = {
/* width height num_colors chars_per_pixel */
"    32    22       56            1",
/* colors */
". c #000000",
"# c #d75556",
"a c #f5eded",
"b c #edc4c4",
"c c #e18a8a",
"d c #eec8c8",
"e c #ca1414",
"f c #f1d7d8",
"g c #f4e8e8",
"h c #e69f9f",
"i c #d13838",
"j c #f6f0f0",
"k c #d23c3c",
"l c #e59a9a",
"m c #f0d6d6",
"n c #ebbaba",
"o c #c70606",
"p c #da6464",
"q c #d54848",
"r c #ce2a2a",
"s c #ecc0c1",
"t c #edc4c5",
"u c #e7a8a8",
"v c #d03232",
"w c #f1d9d9",
"x c #f5eaea",
"y c #da6363",
"z c #dd7273",
"A c #e08383",
"B c #d75656",
"C c #f3e1e1",
"D c #c60000",
"E c #db696a",
"F c #cc2020",
"G c #df7e7e",
"H c #cb1b1b",
"I c #c70303",
"J c #f6f3f3",
"K c #f7f7f7",
"L c #e59d9d",
"M c #e08181",
"N c #dd7474",
"O c #cf2b2b",
"P c #f0d2d2",
"Q c #e6a3a4",
"R c #c70202",
"S c #f6f2f2",
"T c #e8a9a9",
"U c #d64f4f",
"V c #f0d4d5",
"W c #f7f6f6",
"X c #d65152",
"Y c #f4e9e9",
"Z c #ebbcbc",
"0 c #efcdcd",
"1 c #e6a0a0",
/* pixels */
"................................",
".DDDDDDDAKKKKKKKKKKKKKKyDDDDDDD.",
".DDDDDDDAKKKKKKKKKKKKKKyDDDDDDD.",
".DDDDDDDAKKKKKKKKKKKKKKyDDDDDDD.",
".DDDDDDDAKKKKKKJKKKKKKKyDDDDDDD.",
".DDDDDDDAKKKKKKLnKKKKKKyDDDDDDD.",
".DDDDDDDAKKKKSavUYKKKKKyDDDDDDD.",
".DDDDDDDAKKKKKkDI#KKKKKyDDDDDDD.",
".DDDDDDDAKKKfKpDDMWwKKKyDDDDDDD.",
".DDDDDDDAKbTXqcDDliE1PKyDDDDDDD.",
".DDDDDDDAKCoDDIDDRDDejKyDDDDDDD.",
".DDDDDDDAK0HDDDDDDDDOwKyDDDDDDD.",
".DDDDDDDAKKdNFDDDDrGPKKyDDDDDDD.",
".DDDDDDDAKKKKBDIIDzKKKKyDDDDDDD.",
".DDDDDDDAKKKSmxutgVWKKKyDDDDDDD.",
".DDDDDDDAKKKKKKQsKKKKKKyDDDDDDD.",
".DDDDDDDAKKKKKKhZKKKKKKyDDDDDDD.",
".DDDDDDDAKKKKKKajKKKKKKyDDDDDDD.",
".DDDDDDDAKKKKKKKKKKKKKKyDDDDDDD.",
".DDDDDDDAKKKKKKKKKKKKKKyDDDDDDD.",
".DDDDDDDAKKKKKKKKKKKKKKyDDDDDDD.",
"................................"
};
