/* XPM */
static const char *xpmDriver[]={
"48 48 189 2",
"Qt c None",
"a0 c #000000",
"aL c #090909",
"av c #0f0f0f",
"ad c #101010",
"a4 c #131313",
"a2 c #141414",
"#x c #171717",
"at c #181818",
"an c #1a1a1a",
"a6 c #1c1c1c",
".# c #1d1d1d",
"am c #1e1e1e",
"aJ c #1f1f1f",
".m c #212121",
"#T c #232323",
"aw c #252525",
".e c #262626",
"a1 c #282828",
"#9 c #292929",
"aV c #2a2a2a",
"ak c #2b2b2b",
"aZ c #2c2c2c",
"#2 c #2d2d2d",
"ar c #2f2f2f",
"az c #313131",
".o c #323232",
".5 c #343434",
"aG c #373737",
".G c #3b3b3b",
"#V c #3d3d3d",
"aO c #3f3f3f",
"aS c #404040",
"aX c #414141",
"ai c #434343",
"#K c #454545",
"#S c #464646",
".W c #4b4b4b",
"aA c #4d4d4d",
"aQ c #4e4e4e",
"aU c #4f4f4f",
"#I c #545454",
".H c #555555",
"#l c #565656",
"#Y c #575757",
"aD c #585858",
"a5 c #595959",
"au c #5b5b5b",
"#Z c #5c5c5c",
"#3 c #5e5e5e",
".Q c #606060",
"ag c #626262",
".A c #636363",
"#X c #656565",
"a3 c #666666",
"a. c #676767",
"al c #686868",
".a c #6a6a6a",
".L c #6b6b6b",
".4 c #6d6d6d",
"as c #6e6e6e",
"#i c #6f6f6f",
"aN c #707070",
"#D c #717171",
"#4 c #727272",
"#J c #737373",
"a# c #747474",
"ae c #757575",
"aK c #777777",
"aq c #787878",
"#f c #7a7a7a",
"#k c #7b7b7b",
"#M c #7c7c7c",
"#Q c #7d7d7d",
"ao c #7e7e7e",
".6 c #7f7f7f",
".V c #808080",
"#r c #818181",
"#h c #828282",
"aa c #838383",
"#8 c #848484",
"#P c #858585",
"#b c #868686",
"af c #878787",
"ax c #888888",
".x c #8a8a8a",
"aC c #8b8b8b",
"aF c #8c8c8c",
"aR c #8e8e8e",
"#B c #8f8f8f",
"#R c #909090",
"aB c #919191",
"ap c #949494",
"#c c #959595",
"aE c #969696",
"aW c #989898",
".3 c #9a9a9a",
"aM c #9b9b9b",
"#g c #9c9c9c",
"ab c #9d9d9d",
"aH c #9e9e9e",
"ac c #9f9f9f",
".f c #a0a0a0",
"#1 c #a1a1a1",
"aP c #a3a3a3",
".7 c #a4a4a4",
"#w c #a5a5a5",
".n c #a6a6a6",
"#q c #a7a7a7",
".w c #a8a8a8",
".X c #a9a9a9",
"aI c #aaaaaa",
".b c #ababab",
"aY c #acacac",
"aT c #adadad",
".9 c #aeaeae",
".M c #afafaf",
".u c #b0b0b0",
"#L c #b1b1b1",
"ay c #b2b2b2",
".p c #b3b3b3",
"#W c #b4b4b4",
".l c #b5b5b5",
"#p c #b6b6b6",
".8 c #b7b7b7",
".B c #b8b8b8",
".v c #b9b9b9",
"ah c #bababa",
".Z c #bbbbbb",
"#E c #bcbcbc",
"#7 c #bdbdbd",
".K c #bebebe",
".C c #bfbfbf",
".1 c #c0c0c0",
".0 c #c1c1c1",
"#0 c #c2c2c2",
"#A c #c3c3c3",
".R c #c4c4c4",
"#C c #c5c5c5",
"#F c #c6c6c6",
".T c #c7c7c7",
"#a c #c8c8c8",
"#6 c #c9c9c9",
".q c #cacaca",
"#5 c #cbcbcb",
"#s c #cccccc",
".2 c #cdcdcd",
"#y c #cecece",
".t c #cfcfcf",
".U c #d0d0d0",
"#v c #d1d1d1",
".c c #d2d2d2",
".d c #d3d3d3",
"aj c #d4d4d4",
"## c #d5d5d5",
"#U c #d6d6d6",
".S c #d7d7d7",
".k c #d8d8d8",
".r c #d9d9d9",
".D c #dadada",
"#o c #dbdbdb",
"#. c #dcdcdc",
".g c #dddddd",
".s c #dedede",
"#N c #dfdfdf",
"#e c #e0e0e0",
".J c #e1e1e1",
"#n c #e2e2e2",
".z c #e3e3e3",
"#j c #e4e4e4",
"#O c #e5e5e5",
"#u c #e6e6e6",
"#z c #e7e7e7",
"#m c #e8e8e8",
"#G c #e9e9e9",
".j c #eaeaea",
".I c #ebebeb",
".h c #ececec",
"#d c #ededed",
"#H c #eeeeee",
"#t c #efefef",
".i c #f0f0f0",
".P c #f1f1f1",
".F c #f2f2f2",
".E c #f3f3f3",
".O c #f4f4f4",
".y c #f5f5f5",
".N c #f6f6f6",
".Y c #f7f7f7",
"QtQtQtQtQtQtQtQtQtQtQtQtQtQtQtQtQtQtQtQtQtQtQtQtQtQtQtQtQtQtQtQtQtQtQtQtQtQtQtQtQtQtQtQtQtQtQtQt",
"QtQtQtQtQtQtQtQtQtQtQtQtQtQtQtQtQtQtQtQtQtQtQtQtQtQtQtQtQtQtQtQtQtQtQtQtQtQtQtQtQtQtQtQtQtQtQtQt",
"QtQtQtQtQtQtQtQtQtQtQtQtQtQtQtQtQtQtQtQtQtQtQtQtQtQtQtQtQtQtQtQtQtQtQtQtQtQtQtQtQtQtQtQtQtQtQtQt",
"QtQtQtQtQtQtQtQtQtQtQtQtQtQtQtQtQtQtQtQtQtQtQtQtQtQtQtQtQtQtQtQtQtQtQtQtQtQtQtQtQtQtQtQtQtQtQtQt",
"QtQtQtQtQtQtQtQtQtQtQtQtQtQtQtQtQtQtQtQtQtQtQtQtQtQtQtQtQtQtQtQtQtQtQtQtQtQtQtQtQtQtQtQtQtQtQtQt",
"QtQtQtQtQtQtQtQtQtQtQtQtQtQtQtQtQtQtQtQtQtQtQtQtQtQtQtQtQtQtQtQtQtQtQtQtQtQtQtQtQtQtQtQtQtQtQtQt",
"QtQtQtQtQtQtQtQtQtQtQtQtQtQtQtQtQtQtQtQtQt.#.a.b.c.d.eQtQtQtQtQtQtQtQtQtQtQtQtQtQtQtQtQtQtQtQtQt",
"QtQtQtQtQtQtQtQtQtQtQtQtQtQtQtQtQtQtQtQt.f.g.h.i.j.k.l.mQtQtQt.n.oQtQtQtQtQtQtQtQtQtQtQtQtQtQtQt",
"QtQtQtQtQtQtQtQtQtQtQtQtQtQtQtQtQtQtQtQt.p.q.r.s.t.u.v.w.#Qt.x.y.z.AQtQtQtQtQtQtQtQtQtQtQtQtQtQt",
"QtQtQtQtQtQtQtQtQtQtQtQtQtQtQtQtQtQtQtQt.u.p.B.C.D.E.F.i.G.H.h.I.J.K.LQtQtQtQtQtQtQtQtQtQtQtQtQt",
"QtQtQtQtQtQtQtQtQtQtQtQtQtQtQtQtQtQtQtQt.u.u.M.N.y.O.E.P.Q.R.r.S.T.K.U.VQtQtQtQtQtQtQtQtQtQtQtQt",
"QtQtQtQtQtQtQtQtQtQtQtQtQtQt.WQtQtQtQtQt.X.u.M.Y.N.y.O.E.Z.Z.0.1.l.D.d.2.3QtQtQtQtQtQtQtQtQtQtQt",
"QtQtQtQtQtQtQtQtQtQtQtQtQt.1.P.4QtQt.5.V.6.7.M.N.Y.N.y.O.8.b.9.b.g#.##.t#a#bQtQtQtQtQtQtQtQtQtQt",
"QtQtQtQtQtQtQtQtQtQtQtQt#c.F#d#e#f.Q.M#g#h#i.7.O.N.N.N.y.E.I.t.k#j.s.S.U.q#kQtQtQtQtQtQtQtQtQtQt",
"QtQtQtQtQtQtQtQtQtQtQt#l#m#m#n.0#o#p#q.3#r#h#s.P.y.N.N.y.O.F#t.I#u#e.r#v#wQtQtQtQtQtQtQtQtQtQtQt",
"QtQtQtQtQtQtQtQtQtQt#x.1####.R#y.I#z#A#B#w#e.I#t.E.N.N.y.O.F#t.h#z.J.D#C.eQtQtQtQtQtQtQtQtQtQtQt",
"QtQtQtQtQtQtQtQtQtQt#D#E.0.K#F#t#G#j.s.U.g.z#G#H.F.N.Y.N.O.F.i.h#z.J.D#B#I#J#KQtQtQtQtQtQtQtQtQt",
"QtQtQtQtQtQtQtQtQtQtQt#B#L.b.E#H#G#j.g.r.g.z#m#H.F.N.Y.N.O.F.i.h#z.J.D.p#M#k#k.AQtQtQtQtQtQtQtQt",
"QtQtQtQtQtQtQtQtQtQtQtQt#b#n.E#t.j#u.J#N.J#O.j#t.E.N.N.y.O.F#t.h#z.J.D#y#P#Q#r#R#SQtQtQtQtQtQtQt",
"QtQtQtQtQtQtQtQtQtQtQtQt#T#n.y.P#d#G#u#O#u#G#d.P#U.L#V.L#U.F#t.I#u#e.r.c#W.8.C.B#XQtQtQtQtQtQtQt",
"QtQtQtQtQtQtQtQtQtQtQtQt#Y#w.U.E.i#H.I.I.I#d.J.aQtQtQtQt#Z#0#H.j#O#N.S#v.q.R.K.8#PQtQtQtQtQtQtQt",
"QtQtQtQtQtQtQtQtQtQtQtQt#B.M#1.0.O.F.i.i.i#n#2QtQtQtQtQt#3#4#5#G.z.g##.t#6#A#7#p#8QtQtQtQtQtQtQt",
"QtQtQtQtQtQtQtQtQtQt#9#3.Z.9.f##.N.y.O.O.O.aQtQtQtQtQtQta.a##R#u.J.D.d.2.T.0.Z.laaQtQtQtQtQtQtQt",
"QtQtQtQtQtQtQt.#ab.c#..S#v#Wac.N.N.Y.Y.N.vQtQtQtQtQtQtad.Vaeaf#j.s.S#v#5#C.C.v.pagQtQtQtQtQtQtQt",
"QtQtQtQtQtQtQt#V.i#e#o#U.U#0ah.y.y.N.N.N#ZQtQtQtQtQtQtai.6a##b.J#oaj#y#a#A#7.8#PakQtQtQtQtQtQtQt",
"QtQtQtQtQtQtQtal.F.j#0.1#F.k.E.O.O.y.y.yamQtQtQtQtQtan#Qao#4ap.g.S#v#5#FaqarQtQtQtQtQtQtQtQtQtQt",
"QtQtQtQtQtQtQt#D#z#z.U.j#d#t.P.F.E.E.O.OQtQtQtQtQtQt#D#8#kas.B.r.d.2#a#AatQtQtQtQtQtQtQtQtQtQtQt",
"QtQtQtQtQtQtQtauaj#0.2#u#G.h#H#t.i.P.P.FavQtQtQtaw#Qax#raqax.raj.t.q#C#RQtQtQtQtQtQtQtQtQtQtQtQt",
"QtQtQtQtQtQtQtar.Cay#6.J#O#z.j.I#d#H#H#H#razaA#DaBaC#8#Qaq.Raj.t#5#F.0aDQtQtQtQtQtQtQtQtQtQtQtQt",
"QtQtQtQtQtQtQtQt.3#q#C#.#N#n#O#z#m#G.j.j#eacaEaBaF#b.6#Q.R.d.t#5.T#0#7.uaGQtQtQtQtQtQtQtQtQtQtQt",
"QtQtQtQtQtQtQtQtQt#b.1##.r#.#N.J.z#j#O#O#O##.7.x#P#baH.t.c#y.q#F#0#7.v#WaIaJQtQtQtQtQtQtQtQtQtQt",
"QtQtQtQtQtQtQtQtQtQtaH#BaK#gaI.D#..s.s#N.s.s#..U#0#U.d.U.2#6#C#0#7.v#W.u.baBQtQtQtQtQtQtQtQtQtQt",
"QtQtQtQtQtQtQtQtQtQtQtaLaK#c#c.t###U.S.S.S#U##.d#v.t.2.q.T.R.1#7.B#W.u.b#q#VQtQtQtQtQtQtQtQtQtQt",
"QtQtQtQtQtQtQtQtQtQtQt.AaM#g#1.9#y.t.U.U.U.t#y.2#s.q.T#C#0.C.Z.8.p.M.b#qaNQtQtQtQtQtQtQtQtQtQtQt",
"QtQtQtQtQtQtQtQtQtQtaO#waP.7ac.Z#a#6.q.q.q#6#a.T#C.R.0.C#E.v#QaQ.9aI.naRQtQtQtQtQtQtQtQtQtQtQtQt",
"QtQtQtQtQtQtQtQtQtQtaSaIaI.7aT.0#0#A#A.R#A#A#0.0.C.K.Z.v.baUQtQtaVaMaWamQtQtQtQtQtQtQtQtQtQtQtQt",
"QtQtQtQtQtQtQtQtQtQtQtaXaY#w.vah#E#E#7#7#7#E#Eah.v.8.l.paZQtQtQtQtQt.#QtQtQtQtQtQtQtQtQtQtQtQtQt",
"QtQtQtQtQtQtQtQtQtQtQtQt.G#Lay#W.l#p.8#K#gac#w#W.p#L.MaTakQtQtQtQtQtQtQtQtQtQtQtQtQtQtQtQtQtQtQt",
"QtQtQtQtQtQtQtQtQtQtQtQtQtaSaY.9.M.Masa0#q#BaB.9aT.b.X#q#9QtQtQtQtQtQtQtQtQtQtQtQtQtQtQtQtQtQtQt",
"QtQtQtQtQtQtQtQtQtQtQtQtQtQtaOab.w.xQtQt#iaC#B.w.n#waP#1a1QtQtQtQtQtQtQtQtQtQtQtQtQtQtQtQtQtQtQt",
"QtQtQtQtQtQtQtQtQtQtQtQtQtQtQta2a3a2QtQtQtaQaC#1.facabaxa4QtQtQtQtQtQtQtQtQtQtQtQtQtQtQtQtQtQtQt",
"QtQtQtQtQtQtQtQtQtQtQtQtQtQtQtQtQtQtQtQtQtQta5aea#aAa6QtQtQtQtQtQtQtQtQtQtQtQtQtQtQtQtQtQtQtQtQt",
"QtQtQtQtQtQtQtQtQtQtQtQtQtQtQtQtQtQtQtQtQtQtQtQtQtQtQtQtQtQtQtQtQtQtQtQtQtQtQtQtQtQtQtQtQtQtQtQt",
"QtQtQtQtQtQtQtQtQtQtQtQtQtQtQtQtQtQtQtQtQtQtQtQtQtQtQtQtQtQtQtQtQtQtQtQtQtQtQtQtQtQtQtQtQtQtQtQt",
"QtQtQtQtQtQtQtQtQtQtQtQtQtQtQtQtQtQtQtQtQtQtQtQtQtQtQtQtQtQtQtQtQtQtQtQtQtQtQtQtQtQtQtQtQtQtQtQt",
"QtQtQtQtQtQtQtQtQtQtQtQtQtQtQtQtQtQtQtQtQtQtQtQtQtQtQtQtQtQtQtQtQtQtQtQtQtQtQtQtQtQtQtQtQtQtQtQt",
"QtQtQtQtQtQtQtQtQtQtQtQtQtQtQtQtQtQtQtQtQtQtQtQtQtQtQtQtQtQtQtQtQtQtQtQtQtQtQtQtQtQtQtQtQtQtQtQt",
"QtQtQtQtQtQtQtQtQtQtQtQtQtQtQtQtQtQtQtQtQtQtQtQtQtQtQtQtQtQtQtQtQtQtQtQtQtQtQtQtQtQtQtQtQtQtQtQt"};
