/* XPM */
static const char *xpmDSN_System[]={
"48 48 400 2",
"Qt c None",
"dl c #000000",
"en c #080808",
"dc c #0f0f0f",
"eg c #121212",
"ej c #161616",
".c c #1b1b1b",
"c5 c #1c1c1c",
"du c #1d1d1d",
"em c #202020",
"el c #212121",
"ek c #222222",
"ef c #232323",
"c6 c #272727",
".s c #292929",
".z c #2b2b2b",
"dA c #333333",
".r c #343434",
".y c #363636",
"#D c #373737",
"bP c #383838",
"eb c #3a3a3a",
".P c #3b3b3b",
"d4 c #404040",
".2 c #4170a0",
".# c #434343",
"ei c #444444",
".3 c #4577a8",
"eh c #464646",
"#2 c #4673a0",
"#g c #4778a8",
"#3 c #4876a4",
"#u c #4878a7",
"d7 c #4a4a4a",
"#K c #4a79a7",
"#f c #4b77a3",
"dH c #4ba44d",
"dD c #4c4c4c",
"dd c #4e4e4e",
"dR c #4ea350",
"ea c #4f4f4f",
"dt c #505050",
".j c #515151",
"d8 c #545454",
"aj c #547faa",
"#v c #5886b3",
"#h c #5988b6",
"dP c #5c5c5c",
"#L c #5c88b3",
"dY c #5d5d5d",
".b c #5e5e5e",
"cw c #5e95cb",
".t c #606060",
"cl c #6096cb",
"#4 c #618ab3",
"cv c #6196cb",
"c# c #6297cb",
"dG c #62b064",
"ck c #6397cc",
"b2 c #6398cc",
".A c #646464",
"cu c #6498cc",
"bN c #6598cc",
".1 c #6689ac",
"bD c #6699cc",
"#w c #6793bf",
"ct c #6799cc",
"#i c #6895c3",
"bs c #689acc",
"c7 c #6992bc",
"bg c #699bcc",
"cX c #6a93bc",
"a5 c #6a9bcc",
"cK c #6b93bc",
"aQ c #6b9ccc",
"br c #6b9ccd",
".a c #6c6c6c",
"cB c #6c94bc",
"ay c #6c9ccc",
"bf c #6c9ccd",
"b1 c #6c9dcd",
"cs c #6d94bc",
"#M c #6d96bf",
"af c #6d9ccc",
"#V c #6d9dcc",
"a4 c #6d9dcd",
"#1 c #6e8eae",
"ci c #6e95bc",
".4 c #6e96bf",
"#C c #6e9dcc",
"aP c #6e9dcd",
"bq c #6e9ecd",
"#J c #6f8eae",
"#t c #6f8faf",
"b8 c #6f95bc",
"bV c #6f96bc",
"#k c #6f9dcc",
"cP c #6f9ecc",
"ax c #6f9ecd",
"cF c #6f9fcf",
"db c #707070",
"#e c #7090af",
"bI c #7096bc",
"cY c #709cc8",
"ae c #709ecd",
"bC c #709fcd",
"dS c #70aa72",
"bx c #7196bc",
"cM c #719cc8",
"#B c #719fcc",
"#U c #719fcd",
"bM c #719fce",
"dN c #727272",
"bl c #7297bc",
"cC c #729dc8",
"#j c #729fcc",
"aO c #729fcd",
"bp c #729fce",
"dO c #737373",
"a9 c #7397bb",
"cL c #739dc8",
"b9 c #739ec8",
"cZ c #739fcb",
"aw c #73a0cd",
"be c #73a0ce",
"bB c #73a1ce",
"#o c #747474",
"ak c #7498bb",
"#5 c #7499bf",
"aa c #749ec8",
"#x c #749ec9",
"cN c #749fcb",
"#A c #74a0cd",
"a3 c #74a1ce",
"aB c #7598bb",
"#P c #759ec8",
"aH c #759fc8",
"#Q c #759fc9",
"cD c #759fca",
"cO c #75a1cd",
"aN c #75a1ce",
".Q c #767676",
"a# c #769fc8",
"cE c #76a1cd",
"av c #76a2ce",
"cQ c #76a2cf",
"e# c #777777",
"#O c #779fc8",
"b# c #77a0c8",
"bJ c #77a0c9",
"#T c #77a2ce",
"d3 c #787878",
"a. c #78a0c8",
"aX c #78a1c9",
"#z c #78a2cd",
"a2 c #78a3ce",
"bo c #78a3cf",
"dK c #797979",
"dg c #799ec3",
"#N c #79a0c8",
"bm c #79a1ca",
"aM c #79a3ce",
"b0 c #79a3cf",
".d c #7a7a7a",
"#9 c #7aa1c8",
"#y c #7aa4cd",
"ad c #7aa4ce",
"bd c #7aa4cf",
"dW c #7b7b7b",
"ar c #7ba1c8",
"bY c #7ba4cb",
"#S c #7ba4ce",
"cj c #7ba5ce",
"a1 c #7ba5cf",
"dm c #7c7c7c",
"#8 c #7ca2c8",
"aL c #7ca5cf",
"dq c #7d7d7d",
"aq c #7da2c8",
"bX c #7da3c8",
"aI c #7da5cc",
"#R c #7da5ce",
"au c #7da6cf",
"dI c #7e7e7e",
"#7 c #7ea3c8",
"c. c #7ea6cd",
"ac c #7ea6ce",
"bL c #7ea6cf",
"dL c #7f7f7f",
"ap c #7fa3c8",
"ab c #7fa7ce",
"a0 c #7fa7d0",
"bT c #808080",
"bW c #80a3c8",
"aG c #80a4c8",
"as c #80a6cd",
"aK c #80a7cf",
"bZ c #80a8cf",
"bA c #80a8d0",
"d2 c #818181",
"#6 c #81a4c8",
"by c #81a7ce",
"at c #81a8cf",
"bc c #81a8d0",
"dX c #828282",
"ai c #829bb5",
"aU c #829cb5",
"ao c #82a4c8",
"b. c #82a5c8",
"ba c #82a8ce",
"aZ c #82a9d0",
"cq c #838383",
"bw c #839cb6",
"bU c #839db6",
"aF c #83a5c8",
"bK c #83a9cf",
"bz c #83a9d0",
"dC c #848484",
"ch c #849db7",
"cA c #849eb7",
"aW c #84a5c8",
"an c #84a6c8",
"aJ c #84a9cf",
"c8 c #84aace",
"bb c #84aad0",
"c0 c #84abd2",
"dz c #858585",
"cW c #859eb8",
"aE c #85a6c8",
"bn c #85abd0",
"cx c #85aed8",
"b4 c #868686",
"aV c #86a6c8",
"am c #86a7c8",
"aY c #86abd0",
"cm c #86afd8",
".k c #878787",
"aD c #87a7c8",
"ca c #87afd8",
".u c #888888",
"al c #88a8c7",
"b3 c #88b0d8",
"b5 c #898989",
"aC c #89a8c7",
"bO c #89b1d8",
"d1 c #8a8a8a",
"bE c #8ab2d8",
"ee c #8b8b8b",
"bt c #8bb2d8",
"dn c #8c8c8c",
"bh c #8cb2d8",
"e. c #8d8d8d",
"a6 c #8db3d8",
"cg c #8e8e8e",
"aR c #8eb3d8",
"cp c #8f8f8f",
"ag c #8fb4d8",
"dM c #909090",
".M c #90a6bd",
"#l c #90b4d8",
"de c #919191",
"cr c #929292",
"dU c #939393",
"cG c #93b7db",
"dV c #949494",
"b6 c #959595",
"#0 c #95a8bc",
"d9 c #969696",
"#I c #96a9bd",
"dB c #979797",
"#s c #97aabd",
"dv c #989898",
"#d c #98acbf",
".0 c #99acc0",
"cR c #99badc",
"dJ c #9a9a9a",
"bv c #9b9b9b",
".B c #9c9c9c",
"bk c #9d9d9d",
"cb c #9f9f9f",
"a7 c #a0a0a0",
"d5 c #a1a1a1",
"aS c #a2a2a2",
".6 c #a3a3a3",
"az c #a4a4a4",
"ds c #a5a5a5",
"ed c #a6a6a6",
"c9 c #a6c1dc",
"c1 c #a6c3df",
"ah c #a7a7a7",
"da c #a8a8a8",
"dx c #a8bfa9",
"#X c #a9a9a9",
"cy c #aaaaaa",
"d0 c #ababab",
"dh c #abc3dc",
"#E c #acacac",
"bS c #adadad",
"co c #aeaeae",
"dr c #afafaf",
".e c #b0b0b0",
"b7 c #b1b1b1",
"df c #b2b2b2",
"cf c #b3b3b3",
"cJ c #b4b4b4",
"dT c #b5b5b5",
"cV c #b6b6b6",
"cz c #b7b7b7",
".U c #b8b8b8",
"cc c #b9b9b9",
".L c #b9c3cc",
"cH c #b9d1e8",
"dy c #bababa",
".p c #bbbbbb",
".V c #bcbcbc",
".l c #bdbdbd",
"cS c #bdd3e8",
".v c #bebebe",
"#H c #bec4ca",
".H c #bfbfbf",
"#r c #bfc6cc",
".q c #c0c0c0",
"cd c #c1c1c1",
"#c c #c1c7cd",
"#F c #c2c2c2",
".Z c #c2c8cf",
"## c #c4c4c4",
"#Y c #c5c5c5",
"do c #c5ccd2",
"ce c #c6c6c6",
"#Z c #c6c9cd",
".W c #c7c7c7",
"ec c #c8c8c8",
"dw c #c8d3c8",
".w c #c9c9c9",
"d. c #c9d9ea",
"c2 c #c9daec",
".o c #cacaca",
"#G c #cbcbcb",
"di c #cbdbea",
"#q c #cccccc",
"#a c #cdcdcd",
"#. c #cecece",
"cn c #cfcfcf",
"bH c #d0d0d0",
".X c #d1d1d1",
".N c #d1d4d8",
".I c #d2d2d2",
".C c #d3d3d3",
"dQ c #d3ded3",
".x c #d4d4d4",
"#b c #d5d5d5",
".Y c #d6d6d6",
".J c #d7d7d7",
".K c #d8d8d8",
".f c #d9d9d9",
".O c #dadada",
".5 c #dbdbdb",
"#W c #dcdcdc",
".n c #dddddd",
"bi c #dedede",
"dF c #dee4de",
".D c #dfdfdf",
".g c #e0e0e0",
"cI c #e0ebf5",
"a8 c #e1e1e1",
".E c #e2e2e2",
"cT c #e2ecf5",
"aT c #e3e3e3",
"c3 c #e3ecf5",
"c4 c #e4e4e4",
"dk c #e5e5e5",
"aA c #e6e6e6",
"dp c #e6e9ec",
"cU c #e7e7e7",
".R c #e8e8e8",
".h c #e9e9e9",
"#n c #eaeaea",
".G c #ebebeb",
"dj c #ebf0f5",
"d# c #ebf0f6",
".T c #ececec",
"#m c #ededed",
".m c #eeeeee",
"bu c #efefef",
".7 c #f0f0f0",
".F c #f1f1f1",
".9 c #f2f2f2",
".i c #f3f3f3",
".S c #f4f4f4",
"bR c #f5f5f5",
"bj c #f6f6f6",
".8 c #f7f7f7",
"#p c #f8f8f8",
"bQ c #f9f9f9",
"bG c #fafafa",
"bF c #fbfbfb",
"dE c #fcfcfc",
"dZ c #fdfdfd",
"d6 c #fefefe",
"QtQtQtQtQtQtQtQtQtQtQtQtQtQtQtQtQtQtQtQtQtQtQtQtQtQtQtQtQtQtQtQtQtQtQtQtQtQtQtQtQtQtQtQtQtQtQtQt",
"QtQtQtQtQtQtQtQtQtQtQtQtQtQtQtQtQtQtQtQtQtQtQtQtQtQtQtQtQtQtQtQtQtQtQtQtQtQtQtQtQtQtQtQtQtQtQtQt",
"QtQtQtQtQtQtQtQtQtQtQtQtQtQtQtQtQtQtQtQtQtQtQtQtQtQtQtQtQtQtQtQtQtQtQtQtQtQtQtQtQtQtQtQtQtQtQtQt",
"QtQtQtQtQtQtQtQtQtQtQtQtQtQtQtQtQtQtQtQtQtQtQtQtQtQtQtQtQtQtQtQtQtQtQtQtQtQtQtQtQtQtQtQtQtQtQtQt",
"QtQtQtQtQtQtQtQtQtQtQtQtQtQtQtQtQtQtQtQtQtQtQtQtQtQtQtQtQtQtQtQtQtQtQtQtQtQtQtQtQtQtQtQtQtQtQtQt",
"QtQtQtQtQtQtQtQtQtQtQtQtQtQtQtQtQtQtQtQtQtQtQtQtQtQtQtQtQtQtQtQtQtQtQtQtQtQtQtQtQtQtQtQtQtQtQtQt",
"QtQtQtQtQtQtQtQtQtQtQtQtQtQtQtQtQtQtQtQtQtQtQtQtQtQtQtQtQtQtQtQt.#.a.bQtQtQtQtQtQtQtQtQtQtQtQtQt",
"QtQtQtQtQtQtQtQtQtQtQtQtQtQtQtQtQtQtQtQtQtQtQtQtQtQtQt.c.#.d.e.f.g.h.i.f.cQtQtQtQtQtQtQtQtQtQtQt",
"QtQtQtQtQtQtQtQtQtQtQtQtQtQtQtQtQtQtQtQtQtQtQt.c.j.k.l.f.g.h.i.m.n.o.p.q.rQtQtQtQtQtQtQtQtQtQtQt",
"QtQtQtQtQtQtQtQtQtQtQtQtQtQtQtQtQtQtQt.s.t.u.v.f.g.h.i.m.n.o.p.q.w.x.f.f.yQtQtQtQtQtQtQtQtQtQtQt",
"QtQtQtQtQtQtQtQtQtQtQtQtQtQtQt.z.A.B.C.D.E.h.F.G.n.o.p.H.w.I.J.K.L.M.N.O.yQtQtQtQtQtQtQtQtQtQtQt",
"QtQtQtQtQtQtQtQtQtQtQt.P.Q.e.h.R.h.m.S.T.n.o.U.V.W.X.Y.Y.Z.0.1.2.3.4.T.O.y.5QtQtQtQtQtQtQtQtQtQt",
"QtQtQtQtQtQtQtQtQt.6.F.7.F.i.8.9.E#..U.V###a.x#b#c#d#e#f#g#h#i#j#k#l#m.5.y#n.5QtQtQtQtQtQtQtQtQt",
"QtQtQtQtQtQtQtQt#o.T#p.i.E#..l.p###q.I.C#r#s#t#f#u#v#w#x#y#z#A#B#C#l#m.5#D#n#n.5QtQtQtQtQtQtQtQt",
"QtQtQtQtQtQtQtQt#E#m.o.v#F#G.X.X#H#I#J#f#K#L#M#N#O#P#Q#R#S#T#A#U#V#l#m#W#D.G#n#n.5QtQtQtQtQtQtQt",
"QtQtQtQtQtQtQtQt#X.G#Y.5#Z#0#1#2#3#4#5#6#7#8#9a.a#aaabacad#T#Aaeafag#m#W#D.G.G#n#n.5QtQtQtQtQtQt",
"QtQtQtQtQtQtQtQtah.R#Y#Waiajakalamanaoapaqar#Na#aaasatauadavawaxayag#m.n#D.T.G.G#n#n#qQtQtQtQtQt",
"QtQtQtQtQtQtQtQtazaA#Y#WaiaBaCaDaEaFaG#7#8#9a.aHaIaJaKaLaMaNaOaPaQaR.m.n#D.T.T.G.G#n#n.vQtQtQtQt",
"QtQtQtQtQtQtQtQtaSaT#Y#WaUakalaVaW#6apaqara.a#aXaYaZa0a1a2a3#Ua4a5a6.m.n#D.T.T.T.G.G#n#n##QtQtQt",
"QtQtQtQtQtQtQtQta7a8#Y.naUa9aDaEb.aG#7#8#9b##Pbabbbcaubdavbeaebfbgbh.mbi#D#m.T.T.T.G.Tbj#bQtQtQt",
"QtQtQtQtQtQtQtQtbkbi#Y.naUblaVaF#6apaq#9a.a#bmbnaZa0aLboaNbpbqbrbsbt.mbi#D#m#mbu.i.S.R.q#EQtQtQt",
"QtQtQtQtQtQtQtQtbv#W#Y.nbwbxanb.aG#7#8#N#O#PbybzbAaubd#TbBbCa4a5bDbE.m.D#DbFbG.9aTbH##.6#EQtQtQt",
"QtQtQtQtQtQtQtQtQt.f#YbibwbIaF#6ap#8#9a.a#bJbKatbLa1boaNbMbqbrbsbNbObu.DbPbQbR.h.XbS.ubT#EQtQtQt",
"QtQtQtQtQtQtQtQtQt.K#YbibUbVb.bWbXar#N#O#PbYbZbLa1b0avbeaeb1bgbDb2b3bu.gbP.obkb4b5b6.6b7#EQtQtQt",
"QtQtQtQtQtQtQtQtQt.K#YbibUb8#6#7#8#9a.a#b9c.aca1aMavbebCaPbrbsbNc#cabu.gbP.Wcbcccdcecfcg#EQtQtQt",
"QtQtQtQtQtQtQtQtQt.K#Y.Dchciapaqar#N#Oaaaa#RcjaMava3#UbqbfbgbDckclcmbua8bPbQ.Kcncocpcqcr#EQtQtQt",
"QtQtQtQtQtQtQtQtQt.K#Y.Dchcs#7#8#9a.aHb9#Q#Sa2av#A#Uaxbfbgctcucvcwcx.7a8bP.pbTcp.Bcy.Ucz#EQtQtQt",
"QtQtQtQtQtQtQtQtQt.K#Y.DcAcBaqara.a#aacCcD#zcE#AaOaxafa5ctcFcGcHcI.8.Ra8bP.g.CbH.xbHcdcJ#EQtQtQt",
"QtQtQtQtQtQtQt.cQt.K#Y.gcAcK#8#9b#aHcLcMcNcOaw#UcPcQcRcScT.8bucU.ga8a8.EbPbQ#m.5.W.l.VcV#EQtQtQt",
"QtQtQtQtQtQt.k.YQt.K#Y.gcWcX#9a.a#aacCcYcZc0c1c2c3bjbu.GcU.hc4.ga8a8.Ecyc5#G.C.5.ObH##cV#EQtQtQt",
"QtQtQtQtc6.U.C.XQt.K#Ya8cWc7#N#O#Pc8c9d.d#bjbu.TcU#n#ncU.E.n.KdadbbPdcddde#bbR.h.nbH##cV#EQtQtQt",
"QtQtQtQtdf.w#a#GQt.K#Ya8cWdgdhdidj.i.m.h.R#n#ndk.g.5.Y.X#q.W#Fdl.u#Y.SbG.R#bbR.h.nbH##cV#EQtQtQt",
"QtQtQtdm.Xcn.W#Ydn.K#Ya8dodp.h.g.O.Oa8.m.D.O#bcn.o#Y.q.pcVb7aSdc.i.SbRbG.R#bbR.h.nbH##cV#EQtQtQt",
"QtQtQt.v.5#..q.Hdq.K#Ya8.K.f.f.O.O.fdf.H.o##.vcccJdrcyds.ddtdudv.SbRbjbF.R#bbR.hdwdx##cV#EQtQtQt",
"QtQtdl.Cc4cndycccg.H#Y.E.f#Gcode.QdzdAdBcfcoda.6crdC.PQtQtQtdD.SbRbj#pdE.R#bbRdFdGdH##cV#EQtQtQt",
"QtQtdl.I#m.DcJcfbSdIdJb6dm#odKdLb4dIdLdMdeb4dqdNdOdOc5QtQtQtQtdPbj#pbQdE.R#bbRdQdRdS##dT#EQtQtQt",
"QtQtQtb7.8.i.WcobSbSbvcbdJdUdMb6dVcpdWdqdXdLdW.QdOdOQtQtQtQtQtQtdYbQbGdZ.R#bbR.h.K#Y.UcV#EQtQtQt",
"QtQtQt.r.7bj#m.qahdadrd0azbkdvb6crcgd1dzd2dqd3#odOd4QtQtQtQtQtQtQt.bbFdZ.RbHcn.o.W.o##d5.yQtQtQt",
"QtQtQtQt.Q.T#n.E.pd5cba7bkdvb6decgd1b4dXdI.d.QdOdYQtQtQtQtQtQtQtQtQt.bd6.RbQbR.h.n#Xd7QtQtQtQtQt",
"QtQtQtQtQtd8.I.n#b##cydvd9dUdee.d1.kcqdLdWe#dOeaQtQtQtQtQtQtQtQtQtQtQtea#odm.debQtQtQtQtQtQtQtQt",
"QtQtQtQtQtQtdudX#Fec.qcVedbvb6eeb4cqdLdmd3.befQtQtQtQtQtQtQtQtQtQtQtQtQtQtQtQtQtQtQtQtQtQtQtQtQt",
"QtQtQtQtQtQtQtQtegehdLdaaz.6bve.dXdLdYeiejQtQtQtQtQtQtQtQtQtQtQtQtQtQtQtQtQtQtQtQtQtQtQtQtQtQtQt",
"QtQtQtQtQtQtQtQtQtQtQtQtdlekelemenQtQtQtQtQtQtQtQtQtQtQtQtQtQtQtQtQtQtQtQtQtQtQtQtQtQtQtQtQtQtQt",
"QtQtQtQtQtQtQtQtQtQtQtQtQtQtQtQtQtQtQtQtQtQtQtQtQtQtQtQtQtQtQtQtQtQtQtQtQtQtQtQtQtQtQtQtQtQtQtQt",
"QtQtQtQtQtQtQtQtQtQtQtQtQtQtQtQtQtQtQtQtQtQtQtQtQtQtQtQtQtQtQtQtQtQtQtQtQtQtQtQtQtQtQtQtQtQtQtQt",
"QtQtQtQtQtQtQtQtQtQtQtQtQtQtQtQtQtQtQtQtQtQtQtQtQtQtQtQtQtQtQtQtQtQtQtQtQtQtQtQtQtQtQtQtQtQtQtQt",
"QtQtQtQtQtQtQtQtQtQtQtQtQtQtQtQtQtQtQtQtQtQtQtQtQtQtQtQtQtQtQtQtQtQtQtQtQtQtQtQtQtQtQtQtQtQtQtQt",
"QtQtQtQtQtQtQtQtQtQtQtQtQtQtQtQtQtQtQtQtQtQtQtQtQtQtQtQtQtQtQtQtQtQtQtQtQtQtQtQtQtQtQtQtQtQtQtQt"};
