/* XPM */
static const char *xpmDSN_File[]={
"48 48 451 2",
"Qt c None",
"aa c #000000",
"fa c #070707",
".# c #0d0d0d",
"cn c #0e0e0e",
"b4 c #141414",
"c9 c #151515",
"bL c #171717",
".b c #1b1b1b",
"bf c #1c1c1c",
".i c #1d1d1d",
"f# c #1f1f1f",
"bK c #212121",
"eK c #232323",
"bx c #242424",
"ab c #262626",
"bJ c #282828",
"dn c #292929",
"#w c #2a2a2a",
"eV c #2b2b2b",
"cT c #2d2d2d",
"e0 c #2e2e2e",
"#i c #2f2f2f",
"cv c #323232",
"d# c #343434",
"ca c #353535",
".a c #363636",
"ak c #383838",
"e5 c #393939",
"az c #3a3a3a",
"#y c #3b3b3b",
"dp c #3b6f9e",
"by c #3c3c3c",
"a2 c #3d3d3d",
".A c #3d71a1",
"bI c #3e3e3e",
"f. c #404040",
".I c #4073a1",
"cK c #4074a4",
"c0 c #4174a3",
"aH c #424242",
"b3 c #434343",
"au c #4375a2",
"ck c #444444",
"cJ c #4475a0",
"aN c #4475a1",
"de c #4476a3",
"a5 c #459548",
"d8 c #464646",
"co c #474747",
"eT c #479f4a",
"#2 c #494949",
".z c #4a779f",
"e9 c #4b4b4b",
"av c #4b7daa",
"cB c #4c4c4c",
"aO c #4d7da9",
"dd c #4e7ba3",
"cZ c #4e7ba4",
"a1 c #4f4f4f",
".B c #5081ad",
".c c #515151",
"a8 c #517fa9",
"c1 c #5182ae",
"e8 c #525252",
"dy c #535353",
".J c #5382ab",
"#K c #545454",
".H c #547da3",
"cg c #5484ae",
"cS c #555555",
"ey c #5584ae",
"#S c #5684ae",
".j c #575757",
"#A c #5785ae",
"c7 c #585858",
"e. c #5885ae",
"bM c #5886ae",
"cA c #595959",
"#k c #5986ae",
"aw c #598ab4",
"cD c #5a5a5a",
".8 c #5a86ae",
"eJ c #5b5b5b",
"bj c #5b87af",
"aI c #5c5c5c",
"cU c #5c625d",
".V c #5c87af",
"dA c #5d88af",
".C c #5d8db7",
"aM c #5e84a6",
"aP c #5e8bb3",
"#t c #5f5f5f",
"#0 c #606060",
"cL c #608db6",
"at c #6187a9",
"ed c #6197c3",
"a. c #6288aa",
"bY c #6297c3",
"ce c #636363",
"#H c #6398c3",
"ef c #646464",
".K c #648fb6",
"d6 c #6498c3",
"ac c #658fb5",
".E c #666666",
"c2 c #6694bb",
"bP c #6699c4",
"cf c #676767",
"df c #6792b9",
"ek c #6799c4",
"#q c #689ac4",
"d5 c #689bc4",
"bw c #696969",
"bX c #699bc4",
"bG c #6a9bc5",
"#G c #6a9cc5",
"eZ c #6b6b6b",
".q c #6b8aa6",
"ej c #6b9cc4",
"#d c #6b9cc5",
"#x c #6c6c6c",
"aQ c #6c98bd",
"dF c #6c9dc5",
"cu c #6d6d6d",
"bo c #6d9dc5",
"di c #6e6e6e",
"dx c #6e9dc5",
".2 c #6e9ec5",
"dN c #6f6f6f",
".r c #6f91b0",
"bc c #6f9ec5",
"bW c #6f9ec6",
"#p c #6f9fc6",
"aj c #707070",
"dq c #7097b9",
"ep c #709cc2",
"c4 c #709ec5",
".O c #709fc6",
"ew c #717171",
"eh c #719dc3",
"#F c #719fc6",
"bF c #71a0c6",
".L c #729cc0",
"#T c #729dc3",
"er c #729fc6",
"d4 c #72a0c6",
"ec c #72a0c7",
"br c #737373",
"e# c #739ec3",
"dw c #73a0c6",
"dR c #73a0c7",
"bi c #747474",
"b6 c #749ec3",
"b7 c #749fc4",
"b8 c #74a0c6",
"c3 c #74a1c6",
"#c c #74a1c7",
".R c #757575",
".y c #7590a9",
"ez c #759ec3",
"#C c #759fc3",
"bT c #75a0c4",
"eq c #75a1c6",
"bV c #75a1c7",
"dL c #75a2c7",
"dX c #75a2c8",
"dm c #767676",
"dc c #7695b1",
"eG c #769bbd",
"bS c #769fc3",
"#U c #76a1c6",
"ei c #76a2c6",
"eb c #76a2c7",
"d3 c #76a2c8",
"el c #76a4cb",
"eY c #777777",
"## c #77a0c3",
"d2 c #77a1c5",
"bb c #77a2c7",
".1 c #77a2c8",
"#o c #77a3c8",
"e4 c #787878",
"cY c #7896b3",
"#l c #78a0c3",
"ea c #78a2c6",
"#E c #78a3c7",
"dQ c #78a3c8",
"bE c #78a4c8",
"cI c #7998b4",
"b5 c #79a0c3",
".Y c #79a1c3",
"bm c #79a1c4",
"dg c #79a3c7",
".N c #79a4c7",
"#f c #7a7a7a",
"bl c #7aa1c3",
"#m c #7aa3c6",
"#D c #7aa3c7",
"bU c #7aa4c7",
"bO c #7aa4c8",
"dK c #7aa5c8",
"dT c #7b7b7b",
"a9 c #7b9fbf",
"#B c #7ba1c3",
"#. c #7ba2c3",
"dt c #7ba2c4",
"dD c #7ba4c6",
"aR c #7ba4c7",
".h c #7c7c7c",
"bB c #7ca2c3",
"b# c #7ca2c4",
"ba c #7ca4c7",
".M c #7ca5c7",
"#b c #7ca6c9",
"aY c #7d7d7d",
"dC c #7da2c4",
"du c #7da5c8",
"dP c #7da6c9",
".d c #7e7e7e",
"aL c #7e97ac",
".X c #7ea3c4",
".Z c #7ea5c7",
"bC c #7ea6c8",
"dv c #7ea6c9",
"#n c #7ea7c9",
"e2 c #7eac80",
"al c #7f7f7f",
"ds c #7fa3c4",
"d1 c #7fa4c4",
"bD c #7fa8ca",
"bv c #808080",
"bA c #80a4c4",
"bN c #80a8c9",
".0 c #80a8ca",
"#3 c #818181",
"as c #8199af",
".9 c #81a4c4",
"b. c #81a5c4",
"dW c #81a8ca",
"#9 c #829ab0",
"dr c #82a5c4",
"dE c #82a9ca",
"cm c #838383",
"bk c #83a6c4",
"#a c #83a9ca",
".W c #84a6c4",
"bn c #84aacb",
"eO c #858585",
"dJ c #85a7c4",
"ee c #85afd1",
"eX c #868686",
"aX c #878787",
"dB c #87a7c5",
"d7 c #87b0d1",
"a0 c #888888",
"aZ c #898989",
"dY c #89b1d2",
"bu c #8a8a8a",
"b9 c #8ab0d0",
"eE c #8b8b8b",
".p c #8b9cac",
"dS c #8bb2d2",
"aV c #8c8c8c",
"eA c #8cafce",
"dM c #8cb3d2",
"#V c #8db1d1",
"dG c #8eb3d3",
"cP c #8f8f8f",
"dh c #8fb4d2",
"dl c #909090",
"ch c #90b1ce",
"c5 c #90b4d3",
"aW c #919191",
".k c #929292",
"eQ c #939393",
"e7 c #949494",
"cE c #959595",
".x c #95a3af",
".7 c #969696",
"cR c #979797",
"eU c #97b398",
"dk c #989898",
"a7 c #99a6b3",
".U c #99a7b3",
"#j c #99a7b4",
"cs c #99aec0",
".T c #9a9a9a",
"#z c #9aa7b4",
"#R c #9aa8b4",
"#v c #9b9b9b",
"em c #9bbdd9",
"bg c #9c9c9c",
"dj c #9d9d9d",
".F c #9e9e9e",
"db c #9eb0bf",
"#L c #9f9f9f",
"bR c #a0a0a0",
"cX c #a0b1c1",
"cV c #a1a1a1",
"dz c #a1aebb",
"dI c #a1afbb",
"dO c #a1afbc",
"b0 c #a2a2a2",
"ar c #a2acb5",
"#8 c #a2adb6",
"dV c #a2afbc",
"d0 c #a2b0bc",
"d9 c #a2b0bd",
"cH c #a2b3c3",
".s c #a3a3a3",
"eg c #a3b0bd",
"eo c #a3b1bd",
"ex c #a3b1be",
"es c #a3c1da",
".t c #a4a4a4",
".Q c #a5a5a5",
".4 c #a6a6a6",
"#s c #a7a7a7",
"#J c #a8a8a8",
"#M c #a9a9a9",
".G c #a9b0b6",
"cQ c #aaaaaa",
"do c #aab5be",
"eW c #ababab",
"#u c #acacac",
"c. c #acc7de",
"e6 c #adadad",
"eB c #adc7dc",
"#W c #adc8de",
"eP c #aeaeae",
"eF c #aeb9c2",
"ax c #aec7dc",
"#4 c #afafaf",
"aK c #afb2b6",
"aB c #afb6bd",
"ci c #afc8dd",
".e c #b0b0b0",
".o c #b0b4b7",
"e3 c #b0b6b1",
"aJ c #b0c7b1",
"bQ c #b0cbe1",
"bt c #b1b1b1",
"ad c #b1c9dd",
"cO c #b2b2b2",
"cw c #b2b9bf",
"bH c #b2cce1",
"am c #b3b3b3",
"bp c #b3cce1",
"#1 c #b4b4b4",
"bd c #b4cde1",
"cp c #b5b5b5",
"aS c #b5cde1",
"aq c #b6b6b6",
"a6 c #b7b7b7",
"#7 c #b8b8b8",
"bZ c #b8d0e4",
"#Q c #b9b9b9",
"cr c #b9c0c6",
"cx c #b9cada",
".w c #bababa",
"eM c #baccbb",
"cc c #bbbbbb",
"cz c #bcbcbc",
"cC c #bdbdbd",
"eN c #bdc3be",
"c6 c #bebebe",
"aG c #bfbfbf",
"da c #bfc2c5",
".g c #c0c0c0",
"cW c #c0c4c7",
".l c #c1c1c1",
"#P c #c2c2c2",
"cG c #c2c5c9",
"ap c #c3c3c3",
"cq c #c4c4c4",
".n c #c5c5c5",
".v c #c6c6c6",
"et c #c6d9e9",
"aU c #c7c7c7",
"aA c #c8c8c8",
"bs c #c9c9c9",
"cb c #cacaca",
"aC c #cad4dd",
"aF c #cbcbcb",
"eS c #cbdccb",
"#O c #cccccc",
"en c #ccddeb",
"#6 c #cdcdcd",
"cd c #cecece",
".f c #cfcfcf",
"#X c #cfdfec",
".m c #d0d0d0",
"cF c #d1d1d1",
"ct c #d1d4d7",
"ao c #d2d2d2",
"ae c #d2e0ec",
"bz c #d3d3d3",
"eC c #d3e1ec",
"b2 c #d4d4d4",
"eH c #d4e1ec",
"eL c #d5d5d5",
"#N c #d6d6d6",
".D c #d6e3ed",
".u c #d7d7d7",
"a4 c #d7ddd7",
"#I c #d7e4ef",
"#h c #d8d8d8",
"#r c #d8e5f0",
"#5 c #d9d9d9",
"#e c #d9e5f0",
".3 c #d9e6f0",
"cl c #dadada",
".P c #dae6f0",
".S c #dbdbdb",
"cN c #dcdcdc",
"aE c #dddddd",
"a# c #dedede",
".6 c #dfdfdf",
"cM c #dfe3e6",
"ev c #e1e1e1",
"b1 c #e2e2e2",
"an c #e3e3e3",
"ay c #e4e4e4",
"be c #e5e5e5",
"aD c #e6e6e6",
"ai c #e7e7e7",
"a3 c #e8e8e8",
"eu c #e9f0f5",
"aT c #eaeaea",
".5 c #ebebeb",
"bh c #ececec",
"cy c #ededed",
"dH c #eeeeee",
"dZ c #efefef",
"bq c #f0f0f0",
"ah c #f1f1f1",
"eI c #f1f4f6",
"c# c #f1f4f7",
"dU c #f2f2f2",
"#g c #f3f3f3",
"af c #f3f6f8",
"#Y c #f3f6f9",
"c8 c #f4f4f4",
"eD c #f4f7f9",
"#Z c #f5f5f5",
"d. c #f6f6f6",
"cj c #f7f7f7",
"eR c #f8f8f8",
"ag c #f9f9f9",
"e1 c #fafafa",
"QtQtQtQtQtQtQtQtQtQtQtQtQtQtQtQtQtQtQtQtQtQtQtQtQtQtQtQtQtQtQtQtQtQtQtQtQtQtQtQtQtQtQtQtQtQtQtQt",
"QtQtQtQtQtQtQtQtQtQtQtQtQtQtQtQtQtQtQtQtQtQtQtQtQtQtQtQtQtQtQtQtQtQtQtQtQtQtQtQtQtQtQtQtQtQtQtQt",
"QtQtQtQtQtQtQtQtQtQtQtQtQtQtQtQtQtQtQtQtQtQtQtQtQtQtQtQtQtQtQtQtQtQtQtQtQtQtQtQtQtQtQtQtQtQtQtQt",
"QtQtQtQtQtQtQtQtQtQtQtQtQtQtQtQtQtQtQtQtQtQtQtQtQtQtQtQtQtQtQtQtQt.#.aQtQtQtQtQtQtQtQtQtQtQtQtQt",
"QtQtQtQtQtQtQtQtQtQtQtQtQtQtQtQtQtQtQtQtQtQtQtQtQtQtQtQtQt.b.c.d.e.f.g.hQtQtQtQtQtQtQtQtQtQtQtQt",
"QtQtQtQtQtQtQtQtQtQtQtQtQtQtQtQtQtQtQtQtQtQtQtQtQt.i.j.k.l.m.n.o.p.q.r.sQtQtQtQtQtQtQtQtQtQtQtQt",
"QtQtQtQtQtQtQtQtQtQtQtQtQtQtQtQtQtQtQtQtQtQtQtQt.t.u.v.w.x.y.z.A.B.C.D.t.EQtQtQtQtQtQtQtQtQtQtQt",
"QtQtQtQtQtQtQtQtQtQtQtQtQtQtQtQtQtQtQtQtQtQtQtQt.F.G.H.I.J.K.L.M.N.O.P.Q.R.SQtQtQtQtQtQtQtQtQtQt",
"QtQtQtQtQtQtQtQtQtQtQtQtQtQtQtQtQtQtQtQtQtQtQtQt.T.U.V.W.X.Y.Z.0.1.2.3.4.R.5.6QtQtQtQtQtQtQtQtQt",
"QtQtQtQtQtQtQtQtQtQtQtQtQtQtQtQtQtQtQtQtQtQtQtQt.7.U.8.9#.###a#b#c#d#e.4#f#g#h#iQtQtQtQtQtQtQtQt",
"QtQtQtQtQtQtQtQtQtQtQtQtQtQtQtQtQtQtQtQtQtQtQtQt.k#j#k.X#l#m#n#o#p#q#r#s#t#u#v#wQtQtQtQtQtQtQtQt",
"QtQtQtQtQtQtQtQtQtQtQtQtQtQt.a#x#yQtQtQtQtQtQtQt.k#z#A#B#C#D#E#F#G#H#I#J#K.4#L#wQtQtQtQtQtQtQtQt",
"QtQtQtQtQtQtQtQtQtQt.a#x#M#N#O#P#QQtQtQtQtQtQtQt.k#R#S#l#T#U#V#W#X#Y#Z#M#0.w#1#wQtQtQtQtQtQtQtQt",
"QtQtQtQtQtQt#2#3#4#5#6#P#7#8#9a.a#aaQtQtQtQtab.n.k#Racadaeafagahai#Pajakal#N.w#wQtQtQtQtQtQtQtQt",
"QtQtQtQtamanaoapaqarasatauavawaxayaz.jQtQtQtaqaA.kaBaCaDaE#haFaG#MaHaIaqanaJ.w#wQtQtQtQtQtQtQtQt",
"QtQtQtaaa#aKaLaMaNaOaPaQaR#E#FaSayazaT.jQtQt.SaUaVaWaXaYaZ.Ta0a1Qta2a3aya4a5a6#wQtQtQtQtQtQtQtQt",
"QtQtQtaa.Sa7a8a9b.b###ba#nbbbcbdbeaz.5aT.jQt#vaTam#s.T.kaZ.d.RbfQtQtbgbhaF.nbiQtQtQtQtQtQtQtQtQt",
"QtQtQtaa.u.Ubjbk.Xblbmbn#b#cbobpaD#ybhbq.5QtQtbrbsbtbgbubvbwbxQtQtQtQtbya2QtQtQtQtQtQtQtQtQtQtQt",
"QtQtQtaabz.U.8bAbB##bCbDbEbFbGbHaibI#Z#N.tQtQtQtQtbJbJbKbLQtQtQtQtQtQtQtQtQtQtQtQtQtQtQtQtQtQtQt",
"QtQtQtaaao#jbM.X.Y#CbNbO#cbobPbQai#wbRbR.4QtQtQtQtQtQtQtQtQtQtQtQtQtQtQtQtQtQtQtQtQtQtQtQtQtQtQt",
"QtQtQtaaao#z#A#.bSbTbUbVbWbXbYbZa3#w.4#v#MQtQtQtQtQtQtQtQtQtQtQt.a#xb0b1b2b3QtQtQtQtQtQtQtQtQtQt",
"QtQtQtb4aF#R#Sb5b6b7b8b9c.#Xc##Zbecacbcc#4QtQtQtQtQtQtQtb3#xb0b1ai#hcdccccceQtQtQtQtQtQtQtQtQtQt",
"QtQtcf#Q#7#Rcgchciaeafcjahaiao#vceckcl#6cmQtQtcncoalcpanaiaEbz.gcccqcrcsctcuQtQtQtQtQtQtQtQtQtQt",
"Qtcvcd.e#7cwcxahcy.5aEaoaUczcAcB#JapcCbfcDcE.gcybha#cF.g.wapcGcHcIcJcKcLcMcu#2QtQtQtQtQtQtQtQtQt",
"Qt.EcNcp.kcO.4cPa0cpcQcRcS.icTaD#ZcFcUcVbqb1ao.g#Q#PcWcXcYcZc0c1c2c3c4c5cycu.Rc6QtQtQtQtQtQtQtQt",
"Qtc7c8.vcV.kaWaWcmcm#fbic9QtQtcbd.#6d##uaocCdadbdcddde#SdfbSb6aRdgc3bcdhcydi.RaTc6QtQtQtQtQtQtQt",
"QtQtdjay.w.sdkdla0aldmcoQtQtQtQtaUaAdn#JcFdodp.Vdqdrdsdt#lb6dudv#Edwdxdhcydi.R.5aTc6QtQtQtQtQtQt",
"QtQtQt#2QtcO#Lbubvdy.iQtQtQtQtQtQtQtQt.t.mdzdAdB.WbAdC.YbSdDdE#b#obFdFdGdHdidm.5.5aTc6QtQtQtQtQt",
"QtQtQtQtQtQtaaaaQtQtQtQtQtQtQtQtQtQtQtcVcddI.VdJdr.X#B#l#Cbn.0dKdL.O#ddMdHdNdmbh.5dHc8caQtQtQtQt",
"QtQtQtQtQtQtQtQtQtQtQtQtQtQtQtQtQtQtQtdj#6dObjbkbAb#.YbSbadEdPdQdR.2bXdSdHdNdTcjdU.6cp#wQtQtQtQt",
"QtQtQtQtQtQtQtQtQtQtQtQtQtQtQtQtQtQtQtQt#OdV.8b..X#B###CdW#nbOdX.O#dbPdYdZdNaYaDc6.kaW#wQtQtQtQt",
"QtQtQtQtQtQtQtQtQtQtQtQtQtQtQtQtQtQtQtQtaFd0#kd1b#b5#Cd2#ndKd3d4bod5d6d7dZajd8cE.tcO.s#wQtQtQtQt",
"QtQtQtQtQtQtQtQtQtQtQtQtQtQtQtQtQtQtQtQtaFd9e..Xbl##e#eabUebec.2bGbPedeedZajefczb0aW.F#wQtQtQtQt",
"QtQtQtQtQtQtQtQtQtQtQtQtQtQtQtQtQtQtQtQtaFeg#Ab##l#Ceh#UeidwbcejekelemenbqajcB#u.gaGam#wQtQtQtQt",
"QtQtQtQtQtQtQtQtQtQtQtQtQtQtQtQtQtQt.aQtaFeo#SblbSe#epeqerb9eseteu#ZcyaDevewbi.fapcccO#wQtQtQtQt",
"QtQtQtQtQtQtQtQtQtQtQtQtQtQtQtQtQt.kb2QtaFexey#lezeAeBeCeDcj#gcyaianev#MewbfcEa3claUam#wQtQtQtQt",
"QtQtQtQtQtQtQtQtQtQtQtQtQtQtQtQteE#O#OQtaFeFeGeHeI#Z#gcyaib1.SbzaFap#ieJdkb2#NbhclaUam#wQtQtQtQt",
"QtQtQtQtQtQtQtQtQtQtQtQtQtQtQteKeLcd#P.kaFcdaya#clcF#h.mbs.l#QbtbRbrdnc8d.c8#NbheMeNam#wQtQtQtQt",
"QtQtQtQtQtQtQtQtQtQtQtQtQtQtQta1be#6#QeO.n.gePeQ.heOeE#4.t.kcm.iQtQta6d.eRc8#NeSeTeUam#wQtQtQtQt",
"QtQtQtQtQtQtQtQtQtQtQtQtQtQtQteVdHbe#1eWeOeXaZaVdlalbvaleY.ReZQtQtQte0a3e1c8#Nbhe2e3cO#wQtQtQtQt",
"QtQtQtQtQtQtQtQtQtQtQtQtQtQtQtQtbt#gb2cQeW#JdjcR.kaVeOale4bre5QtQtQtQte0bhc8.maFaA.n.EQtQtQtQtQt",
"QtQtQtQtQtQtQtQtQtQtQtQtQtQtQtQtQt#uevcde6Qt.7aWaVaX#3#fbicoQtQtQtQtQtQt#ia6.we7e8QtQtQtQtQtQtQt",
"QtQtQtQtQtQtQtQtQtQtQtQtQtQtQtQtQtQtcS.4c6amb0.7eX#3dTcAbfQtQtQtQtQtQtQtQtQtQtQtQtQtQtQtQtQtQtQt",
"QtQtQtQtQtQtQtQtQtQtQtQtQtQtQtQtQtQtQtQt.b#ye9cof.f#faQtQtQtQtQtQtQtQtQtQtQtQtQtQtQtQtQtQtQtQtQt",
"QtQtQtQtQtQtQtQtQtQtQtQtQtQtQtQtQtQtQtQtQtQtQtQtQtQtQtQtQtQtQtQtQtQtQtQtQtQtQtQtQtQtQtQtQtQtQtQt",
"QtQtQtQtQtQtQtQtQtQtQtQtQtQtQtQtQtQtQtQtQtQtQtQtQtQtQtQtQtQtQtQtQtQtQtQtQtQtQtQtQtQtQtQtQtQtQtQt",
"QtQtQtQtQtQtQtQtQtQtQtQtQtQtQtQtQtQtQtQtQtQtQtQtQtQtQtQtQtQtQtQtQtQtQtQtQtQtQtQtQtQtQtQtQtQtQtQt",
"QtQtQtQtQtQtQtQtQtQtQtQtQtQtQtQtQtQtQtQtQtQtQtQtQtQtQtQtQtQtQtQtQtQtQtQtQtQtQtQtQtQtQtQtQtQtQtQt"};
