/* XPM */
static const char *xpmDSN_User[]={
"48 48 787 2",
"Qt c None",
"cu c #12167d",
"cs c #130352",
"cN c #141170",
"cM c #141475",
"cL c #141679",
"ct c #150150",
"cO c #15116b",
"cv c #151980",
"b5 c #151e89",
"cK c #161a7d",
"cr c #170858",
"cP c #171067",
"cQ c #180f63",
"cJ c #191f81",
"cR c #1c115f",
"cf c #212b91",
"ai c #22125b",
"cq c #221561",
"b4 c #222686",
"b2 c #230e55",
"bz c #23125a",
"b. c #241056",
"b1 c #241158",
"a9 c #25145c",
"b3 c #252682",
"ce c #253093",
"aI c #26155d",
"bA c #262987",
"cS c #27165c",
"cp c #271c68",
"bB c #272c89",
"b# c #272c8a",
"ba c #272e8c",
"cg c #272e8d",
"co c #291e6c",
"cI c #292b84",
"aJ c #293190",
"cn c #2a2170",
"cm c #2a2474",
"ck c #2a287d",
"cj c #2a2a82",
"aj c #2a3394",
"cl c #2b2679",
"ci c #2b2d85",
"ch c #2b2f8a",
"b0 c #2d1d63",
"bC c #2e348f",
"bM c #2e3ea0",
"bD c #303b9a",
"bT c #333386",
"cT c #34205b",
"bX c #342b74",
"bW c #342d79",
"bV c #342f7d",
"bU c #343181",
"bY c #352a71",
"bS c #35368a",
"bZ c #36296d",
"bR c #373a8e",
"bN c #37439e",
"bQ c #383d93",
"by c #392b6e",
"bb c #394198",
"#w c #3944a1",
"bP c #3a4196",
"bE c #3b449a",
"b6 c #3c3d8c",
"bO c #3c4499",
"bu c #3e3b87",
"bt c #3e3e8b",
"bw c #3f387e",
"bs c #3f4090",
"bx c #40367b",
"bv c #403a83",
"#U c #423577",
"br c #424494",
"bd c #424fa7",
"bq c #434798",
"be c #434fa8",
"bp c #454b9c",
"aK c #454da1",
"bl c #4553aa",
"a8 c #473a79",
"cH c #474387",
"bo c #474ea0",
"bn c #4851a3",
"bm c #4a55a6",
"a3 c #4b4991",
"a2 c #4b4c95",
"bc c #4b54a4",
"a5 c #4c4689",
"a4 c #4c488c",
"cU c #4d345d",
"a6 c #4d4485",
"a1 c #4d4f99",
"a7 c #4e4482",
"a0 c #4f529e",
"#V c #4f59ab",
"aO c #4f5fb5",
"cw c #504683",
"ak c #5059a9",
"aZ c #5156a2",
"bk c #525ba6",
"aY c #535aa6",
"aH c #544983",
"aX c #545ca9",
"aT c #5463b5",
"aW c #5560ad",
"aN c #5662b3",
"dc c #574773",
"db c #574777",
"aV c #5762b0",
"aL c #5861ae",
"aM c #5963af",
"aU c #5966b2",
"ah c #5a4f87",
"aD c #5b5897",
"aC c #5b5a9b",
"## c #5b66b6",
"aF c #5c5590",
"aE c #5c5695",
"aB c #5c5ca0",
"aA c #5d5fa3",
"da c #5f4f7a",
"aG c #5f568e",
"az c #5f63a8",
"ay c #6166ab",
"ax c #626aaf",
"aq c #6273c1",
"ar c #6373c1",
"aw c #646cb2",
"ap c #6474c0",
"dd c #655073",
"aP c #656daf",
"av c #6570b6",
"au c #6773b9",
"am c #6872b8",
"an c #6974bb",
"at c #6975bb",
"ao c #6976be",
"cd c #6a608b",
".j c #6a6caa",
"al c #6a73b7",
"as c #6a77bd",
"#v c #6b6299",
"aS c #6b71af",
".# c #6b76bd",
"ac c #6c6ba7",
"af c #6d669b",
"ae c #6d67a0",
"ad c #6d69a3",
"ab c #6d6daa",
"aa c #6f70ae",
".R c #6f7ac3",
"a# c #7073b2",
"d# c #715e7f",
"ag c #726b9c",
"a. c #7277b5",
"de c #735b74",
"#9 c #737ab9",
"bf c #7570a1",
"#8 c #757dbc",
".Q c #7672a6",
"#7 c #767fbf",
"#X c #7781c1",
"#6 c #7782c1",
"#Y c #7983c4",
"#5 c #7984c4",
"#Z c #7a85c6",
"#4 c #7a86c6",
"#2 c #7a88c8",
"#1 c #7a88c9",
"#3 c #7b87c8",
"#0 c #7b88c7",
"#R c #7d79ab",
"#P c #7d7db2",
"#O c #7d7fb5",
"#W c #7d85c1",
"#Q c #7e7cae",
"#S c #7f7aa9",
"#. c #807bab",
"#N c #8083b9",
"#M c #8184bc",
"j. c #82829d",
"#L c #8388bf",
"#x c #838bc6",
"#T c #847faa",
"aQ c #8480a8",
"#K c #848bc2",
"df c #856975",
"ju c #8585a0",
"iB c #8686a1",
"#J c #868dc4",
"j9 c #8787a2",
"#I c #8790c7",
"#H c #8892c9",
"cV c #896e80",
"cG c #897386",
"hp c #8989a5",
"#z c #8993cc",
"#G c #8994cc",
"jO c #8a8aa4",
"d. c #8b7382",
"bF c #8b7b95",
"#A c #8b95ce",
"#F c #8b95cf",
".k c #8b95d0",
"aR c #8c84a6",
"#B c #8c96d0",
"#E c #8c97d0",
"#D c #8c97d1",
"#C c #8c98d1",
"i. c #8d8da6",
"hO c #8d8da7",
"#y c #8d95cb",
".y c #8e8dbc",
"#s c #8f8eba",
"iQ c #8f8fa7",
"k. c #8f8fa9",
"bL c #907d91",
"#t c #908cb8",
"#r c #908fbd",
"hb c #9191aa",
"#q c #9191c0",
".a c #9199ce",
"#p c #9293c2",
"#o c #9396c5",
"#n c #9498c8",
"j# c #9595ac",
".i c #9597c5",
"#m c #959bcb",
"#l c #969dcd",
"#k c #97a0d0",
"jv c #9898b0",
"#j c #98a2d2",
"gZ c #9999b1",
"#i c #99a3d4",
"jP c #9a9ab1",
"dg c #9b7978",
"im c #9b9bb1",
"#c c #9ba3d5",
"#h c #9ba5d5",
"#u c #9c98bd",
"k# c #9c9cb2",
"hB c #9c9cb3",
"#d c #9ca5d6",
"#g c #9ca6d6",
"#e c #9ca6d8",
"#f c #9ca7d8",
"#b c #9da5d5",
"gN c #9f9fb6",
".7 c #a09fc6",
"ja c #a1a1b7",
"h0 c #a2a2b7",
"ha c #a2a2b8",
".6 c #a2a2c9",
"#a c #a2a8d6",
"jQ c #a3a3b8",
".5 c #a3a4cc",
".4 c #a3a7ce",
"iR c #a4a4b9",
".8 c #a5a4c7",
"hZ c #a5a5ba",
"ka c #a5a5bb",
".3 c #a5a9d1",
"b7 c #a6898e",
".2 c #a6abd3",
".1 c #a6add4",
"gF c #a7abc3",
".0 c #a8aed7",
"c9 c #a98a86",
"iS c #a9a9bd",
"iC c #a9a9be",
".Z c #a9b0d9",
".Y c #aab1db",
"hq c #ababbe",
"jw c #ababc0",
".U c #abb2dc",
".V c #abb3de",
"in c #acacc0",
".X c #acb3dd",
".W c #acb4de",
"dh c #ad877c",
"i# c #aeaec0",
"hN c #aeaec1",
"jR c #aeaec2",
"io c #b0b0c3",
".9 c #b1afcc",
"gO c #b1b1c4",
"ia c #b2b2c4",
"il c #b2b2c5",
".T c #b2b8dd",
"hP c #b3b3c5",
".M c #b3b4d4",
".L c #b3b5d6",
"gG c #b3bdd4",
"hc c #b4b4c5",
"jb c #b4b4c6",
".K c #b4b7d8",
".b c #b4bade",
".J c #b5b9d9",
".S c #b5bce0",
"gM c #b5bed5",
"g0 c #b6b6c7",
".I c #b6bbdb",
".H c #b6bcde",
".z c #b6bce1",
".N c #b7b6d5",
"h1 c #b7b7c8",
"jx c #b7b7c9",
".G c #b7bddf",
".P c #b8b7d3",
"gY c #b8b8c9",
".F c #b8bee0",
".D c #b8bfe2",
".h c #b9bbda",
".E c #b9bfe1",
"cx c #ba9589",
"ho c #babaca",
"h# c #bbbacc",
"h9 c #bbbbcb",
".C c #bbc0e2",
"hQ c #bcbccc",
"iP c #bcbccd",
"h2 c #bdbdcd",
"hR c #bebecd",
"bj c #bf9e92",
"hC c #bfbfce",
".B c #bfc5e5",
"gH c #c095a4",
"jc c #c0c0cf",
"bg c #c1a096",
".O c #c1c0da",
"hD c #c1c1d0",
"di c #c29781",
"ib c #c2c2d1",
"iA c #c2c2d2",
"gL c #c39ca9",
"hE c #c3c3d1",
"hY c #c3c3d2",
"hS c #c4c4d3",
".l c #c4cae7",
"hF c #c5c5d3",
"iT c #c5c5d4",
".x c #c5c6de",
"ic c #c6c6d4",
"hs c #c7c7d4",
"hr c #c7c7d5",
"hM c #c7c7d6",
"gI c #c85154",
"gP c #c8c8d5",
"hG c #c8c8d6",
"hT c #c8c9d6",
"gK c #c95254",
"ht c #c9c9d6",
"iD c #c9c9d7",
".A c #c9ceea",
"hH c #c9cfde",
"hu c #cacad7",
"jS c #cacad8",
"h3 c #cacbd8",
".t c #cacde4",
".s c #cacde5",
".r c #cacde6",
"gJ c #cb5254",
"hV c #cb5554",
"hJ c #cb6463",
"hU c #cb9196",
"hW c #cb9197",
"c8 c #cba48b",
"hK c #cba6af",
"hI c #cba9b1",
"gX c #cbcbd7",
"hA c #cbcbd8",
"jd c #cbcbd9",
"hv c #cbcedb",
".q c #cbcee7",
"hz c #cbcfdb",
".c c #cbcfe7",
"hL c #cbd0de",
"hX c #cbd1de",
"hx c #cc7778",
"hy c #ccb9c4",
"hw c #ccbcc6",
"he c #ccccd8",
"h8 c #ccccd9",
"h4 c #cd7174",
"h6 c #cd797c",
"hd c #cdcdd9",
"hl c #cdcdda",
".g c #cdcfe6",
".p c #cdd1e9",
"h5 c #ce5050",
"hg c #ceccd8",
"hk c #ceceda",
"hm c #cecedb",
"hj c #cecfdb",
"h7 c #cecfdc",
".u c #cecfe6",
"id c #ced1de",
"hh c #cf9497",
"hi c #cfc9d5",
"hf c #cfcedb",
"g1 c #cfcfda",
"ik c #cfcfdb",
"iE c #cfcfdc",
"gA c #d08881",
"ie c #d0bfca",
"ij c #d0d0dc",
"hn c #d1d1dc",
"ii c #d1d1dd",
"kb c #d1d1de",
"if c #d25759",
"h. c #d2d2de",
"g4 c #d2d5e0",
".f c #d2d5e8",
"ig c #d34e4e",
"ih c #d35f60",
"g6 c #d39496",
"g5 c #d3cad4",
"g7 c #d3cdd8",
"g9 c #d3d2de",
"jy c #d3d3de",
".w c #d3d3e5",
".v c #d3d4e7",
"g8 c #d3d5e0",
".e c #d3d5e9",
".d c #d3d6ea",
".o c #d3d6eb",
"g3 c #d4d3de",
"jt c #d4d4df",
"iz c #d4d4e0",
".m c #d4d9ed",
"ip c #d4dbe7",
"gE c #d5938b",
"i9 c #d5d5e0",
"gB c #d66f61",
"cW c #d6a88a",
"g2 c #d6d6e0",
"iy c #d6d6e1",
"gC c #d77465",
"iq c #d7acb3",
"gQ c #d7d7e0",
"gD c #d87264",
"dj c #d8aa88",
"gW c #d8d7e1",
"ix c #d8d8e2",
"j8 c #d8d8e3",
".n c #d8dbef",
"ir c #d94848",
"cF c #d9ab8a",
"jT c #d9d9e3",
"is c #da4949",
"iw c #dadae3",
"i8 c #dadae4",
"it c #db4f50",
"iu c #dbc3cb",
"iv c #dbdfe9",
"gR c #dbe5ef",
"gT c #dc9695",
"gS c #dcbbc0",
"gU c #dcbec3",
"js c #dcdce5",
"gV c #dce5ef",
"iO c #dddde6",
"dB c #deb494",
"i7 c #dedee7",
"iU c #dedfe8",
"iF c #df9398",
"dC c #dfb494",
"iN c #dfdfe7",
"iM c #e0e0e8",
"iG c #e13d3d",
"iH c #e14545",
"dA c #e1b694",
"i6 c #e1e1e9",
"iI c #e24444",
"bG c #e2b492",
"iJ c #e2b5ba",
"kq c #e2e2e9",
"iL c #e2e2ea",
"iV c #e2e4ec",
"iK c #e2e9f2",
"cc c #e3b28b",
"jr c #e3e3ea",
"i5 c #e3e3eb",
"je c #e3e7ef",
"dD c #e4b895",
"jN c #e4e4eb",
"jq c #e4e4ec",
"iX c #e53b3b",
"iW c #e56c6f",
"i4 c #e5e5eb",
"i3 c #e5e5ec",
"jM c #e5e5ed",
"iY c #e64142",
"jf c #e6d7dd",
"j7 c #e6e6ec",
"i2 c #e6e6ed",
"jp c #e6e6ee",
"jz c #e6eff5",
"i1 c #e6f2f8",
"iZ c #e73839",
"i0 c #e7a2a5",
"bh c #e7b992",
"jL c #e7e7ee",
"jg c #e8494a",
"ev c #e8b387",
"d9 c #e8b388",
"jo c #e8e8ee",
"eQ c #e9b58a",
"fu c #e9b78e",
"dz c #e9bc97",
"jA c #e9bcc0",
"jn c #e9e9ef",
"j6 c #e9e9f0",
"kc c #e9eaf0",
"jh c #ea3b3c",
"ji c #ea3e3f",
"ew c #eab78d",
"jK c #eaeaf0",
"jm c #eaebf0",
"jl c #eaf3f9",
"jU c #eaf6fc",
"jj c #eb3435",
"jk c #eb888a",
"dk c #ebb689",
"e. c #ebb98e",
"f. c #ebb990",
"fM c #ebbb94",
"dE c #ebbd96",
"jB c #ec3d3d",
"eR c #ecbc92",
"j5 c #ececf0",
"jJ c #ececf1",
"jV c #ed9fa2",
"bi c #edbb90",
"fv c #edbe97",
"kp c #ededf2",
"kd c #edf1f6",
"jC c #ee3c3d",
"jD c #ee3f40",
"dJ c #eeb88a",
"dK c #eebb8f",
"ex c #eebc93",
"e# c #eebd93",
"f# c #eebf97",
"fN c #eec29d",
"jI c #eeeef2",
"jW c #ef3738",
"jE c #ef3838",
"jF c #ef696b",
"dL c #efbd94",
"jG c #efeff4",
"jH c #eff0f5",
"eS c #f0c098",
"fw c #f0c39e",
"f3 c #f0c5a2",
"j4 c #f0f0f4",
"jY c #f14041",
"ke c #f17a7c",
"c7 c #f1c093",
"ey c #f1c098",
"ea c #f1c198",
"fa c #f1c49e",
"fO c #f1c7a3",
"ko c #f1f1f5",
"jX c #f24040",
"dM c #f2c198",
"eT c #f2c49d",
"fx c #f2c7a3",
"f4 c #f2caa9",
"j3 c #f2f2f5",
"j2 c #f2f5f9",
"jZ c #f33d3d",
"j0 c #f34f50",
"dm c #f3bf94",
"dn c #f3c097",
"dF c #f3c399",
"eb c #f3c49c",
"fb c #f3c7a3",
"gf c #f3cdad",
"j1 c #f3e7ea",
"kn c #f3f3f6",
"kf c #f43e3e",
"b8 c #f4c092",
"dy c #f4c59b",
"fP c #f4cbaa",
"fy c #f4cca8",
"f5 c #f4ceae",
"kg c #f54647",
"dN c #f5c49c",
"eU c #f5c7a2",
"ez c #f5c8a1",
"fQ c #f5ceae",
"gg c #f5d0b2",
"gv c #f5d2b7",
"gw c #f5d4ba",
"gx c #f5d6bc",
"km c #f5f5f8",
"ki c #f64445",
"kh c #f64647",
"kj c #f64a4b",
"dl c #f6c190",
"do c #f6c499",
"ec c #f6c7a0",
"fc c #f6cca8",
"f6 c #f6d1b2",
"gh c #f6d3b6",
"kk c #f6d6d7",
"gy c #f6d7be",
"kl c #f6fdfe",
"cZ c #f7c498",
"dO c #f7c69e",
"eV c #f7cba7",
"fz c #f7cead",
"fR c #f7d1b2",
"f7 c #f7d4b7",
"go c #f7d5b8",
"gi c #f7d6ba",
"gp c #f7d8be",
"gz c #f7d8bf",
"cY c #f8c397",
"c0 c #f8c69b",
"dP c #f8c9a1",
"ed c #f8caa2",
"eA c #f8caa4",
"eW c #f8ceaa",
"fd c #f8cfac",
"fA c #f8d1b1",
"gq c #f8dbc0",
"cA c #f9c59a",
"dp c #f9c89f",
"ee c #f9cba5",
"eB c #f9cda8",
"fe c #f9d1b0",
"fS c #f9d4b5",
"f8 c #f9d7ba",
"gj c #f9d8bd",
"gk c #f9dabf",
"gr c #f9ddc2",
"gt c #f9ddc4",
"gs c #f9dec4",
"cX c #fac492",
"cy c #fac493",
"cB c #fac69a",
"c1 c #fac89c",
"dG c #fac99c",
"dq c #fac9a0",
"dQ c #facaa2",
"eC c #facfa9",
"eX c #fad0ac",
"ff c #fad3b3",
"fB c #fad4b4",
"fT c #fad7b9",
"f9 c #fad9bd",
"gl c #fadbc1",
"gm c #fadcc2",
"cC c #fbc79a",
"c2 c #fbc99d",
"dR c #fbcca4",
"ef c #fbcea7",
"eP c #fbcfa9",
"eY c #fbd2af",
"fC c #fbd6b6",
"fD c #fbd7b8",
"fU c #fbd9bb",
"g. c #fbdabf",
"g# c #fbdbc1",
"gn c #fbddc4",
"gu c #fbddc5",
"c. c #fcc79a",
"c3 c #fcc99e",
"dr c #fccba2",
"dx c #fccc9e",
"eu c #fccda5",
"dS c #fccda6",
"eg c #fccfa8",
"eD c #fcd0ab",
"eO c #fcd1ac",
"e9 c #fcd3b0",
"eZ c #fcd3b1",
"ft c #fcd4b4",
"fg c #fcd5b5",
"fL c #fcd7b9",
"fV c #fcdabd",
"fW c #fcdbbf",
"ga c #fcdcc2",
"ge c #fcddc2",
"gb c #fcddc3",
"gd c #fcdec3",
"gc c #fcdec4",
"bK c #fdc68f",
"c# c #fdc799",
"c4 c #fdca9e",
"ds c #fdcca1",
"d8 c #fdcca2",
"dt c #fdcca3",
"dT c #fdcea7",
"eh c #fdd0aa",
"eE c #fdd1ad",
"eF c #fdd2ae",
"eN c #fdd3ad",
"e0 c #fdd4b2",
"e8 c #fdd5b2",
"e1 c #fdd6b3",
"fh c #fdd6b6",
"fs c #fdd7b7",
"fi c #fdd7b8",
"fr c #fdd8b7",
"fq c #fdd8b8",
"fE c #fdd9ba",
"fK c #fdd9bc",
"fF c #fddabc",
"fG c #fddabd",
"fJ c #fddbbd",
"f2 c #fddbc0",
"fX c #fddcbf",
"fY c #fddcc0",
"fZ c #fddcc1",
"f1 c #fddcc2",
"f0 c #fdddc1",
"ca c #fec799",
"cz c #fec899",
"cD c #fec89c",
"dH c #fecb9d",
"d7 c #fecda5",
"dU c #fecea8",
"dV c #fecfa8",
"ei c #fed0ab",
"et c #fed1aa",
"es c #fed1ab",
"ek c #fed1ac",
"ej c #fed2ab",
"eM c #fed2ae",
"er c #fed3ac",
"eG c #fed3af",
"eH c #fed3b0",
"eL c #fed5b0",
"e7 c #fed6b4",
"e2 c #fed7b4",
"e3 c #fed7b5",
"fj c #fed8b9",
"fk c #fed8ba",
"fp c #fed9b9",
"fl c #fed9ba",
"fo c #fedab9",
"fn c #fedaba",
"fm c #fedabb",
"fH c #fedbbe",
"fI c #fedbbf",
"cE c #ffc998",
"b9 c #ffca98",
"cb c #ffca99",
"bH c #ffcb94",
"bJ c #ffcb99",
"c5 c #ffcb9f",
"bI c #ffcc99",
"c6 c #ffcc9d",
"du c #ffcda5",
"dI c #ffce9f",
"dv c #ffcea4",
"dw c #ffcfa0",
"d6 c #ffcfa6",
"dW c #ffd0a9",
"d5 c #ffd1a8",
"d4 c #ffd2a8",
"dX c #ffd2a9",
"el c #ffd2ac",
"d3 c #ffd3a8",
"d2 c #ffd3a9",
"dY c #ffd3aa",
"eq c #ffd3ad",
"dZ c #ffd4a9",
"ep c #ffd4ac",
"em c #ffd4ad",
"en c #ffd4ae",
"eo c #ffd4af",
"d1 c #ffd5a8",
"d0 c #ffd5aa",
"eI c #ffd5b0",
"eK c #ffd5b1",
"eJ c #ffd6b1",
"e4 c #ffd7b6",
"e6 c #ffd8b5",
"e5 c #ffd8b6",
"QtQtQtQtQtQtQtQtQtQtQtQtQtQtQtQtQtQtQtQtQtQtQtQtQtQtQtQtQtQtQtQtQtQtQtQtQtQtQtQtQtQtQtQtQtQtQtQt",
"QtQtQtQtQtQtQtQtQtQtQtQtQtQtQtQtQtQtQt.#.a.b.c.d.e.f.g.h.i.jQtQtQtQtQtQtQtQtQtQtQtQtQtQtQtQtQtQt",
"QtQtQtQtQtQtQtQtQtQtQtQtQtQtQtQtQt.k.l.m.n.o.p.q.r.s.t.u.v.w.x.yQtQtQtQtQtQtQtQtQtQtQtQtQtQtQtQt",
"QtQtQtQtQtQtQtQtQtQtQtQtQtQtQt.#.z.A.B.C.D.E.F.G.H.I.J.K.L.M.N.O.P.QQtQtQtQtQtQtQtQtQtQtQtQtQtQt",
"QtQtQtQtQtQtQtQtQtQtQtQtQtQt.R.S.T.U.V.W.X.U.Y.Z.0.1.2.3.4.5.6.7.8.9#.QtQtQtQtQtQtQtQtQtQtQtQtQt",
"QtQtQtQtQtQtQtQtQtQtQtQtQt###a#b#c#d#e#f#g#h#i#j#k#l#m#n#o#p#q#r#s#t#u#vQtQtQtQtQtQtQtQtQtQtQtQt",
"QtQtQtQtQtQtQtQtQtQtQtQt#w#x#y#z#A#B#C#D#E#F#G#H#I#J#K#L#M#N#O#P#Q#R#S#T#UQtQtQtQtQtQtQtQtQtQtQt",
"QtQtQtQtQtQtQtQtQtQtQtQt#V#W#X#Y#Z#0#1#2#3#4#5#6#7#8#9a.a#aaabacadaeafagahaiQtQtQtQtQtQtQtQtQtQt",
"QtQtQtQtQtQtQtQtQtQtQtajakalamanaoapaqarapasatauavawaxayazaAaBaCaDaEaFaGaHaIQtQtQtQtQtQtQtQtQtQt",
"QtQtQtQtQtQtQtQtQtQtQtaJaKaLaMaNaOaPaQaRaSaTaUaVaWaXaYaZa0a1a2a3a4a5a6a7a8a9b.QtQtQtQtQtQtQtQtQt",
"QtQtQtQtQtQtQtQtQtQtb#babbbcbdbebfbgbhbibjbkblbmbnbobpbqbrbsbtbubvbwbx#Ubybzb.QtQtQtQtQtQtQtQtQt",
"QtQtQtQtQtQtQtQtQtQtbAbBbCbDbEbFbGbHbIbJbKbLbMbNbObPbQbRbSbTbUbVbWbXbYbZb0b1b2QtQtQtQtQtQtQtQtQt",
"QtQtQtQtQtQtQtQtQtQtb3b4b5b6b7b8b9c.c#cacbcccdcecfcgchcicjckclcmcncocpcqcrcsctQtQtQtQtQtQtQtQtQt",
"QtQtQtQtQtQtQtQtQtQtcucvcwcxcyczcAcBcCc.cDcEcFcGcHcIcJcKcLcMcNcOcPcQcRcScTcUQtQtQtQtQtQtQtQtQtQt",
"QtQtQtQtQtQtQtQtQtQtQtcVcWcXcYcZc0c1c2c3c4c5c6c7c8c9d.d#dadbdcdddedfdgdhdidjQtQtQtQtQtQtQtQtQtQt",
"QtQtQtQtQtQtQtQtQtQtQtdkdldmdndoc0dpdqdrdsdtdudvdwdxdydzdAdBdCdDdEdFdGdHdIdIQtQtQtQtQtQtQtQtQtQt",
"QtQtQtQtQtQtQtQtQtQtQtdJdKdLdMdNdOdPdQdRdSdTdUdVdWdXdYdYdZd0d1d2d3d4d5d6d7d8QtQtQtQtQtQtQtQtQtQt",
"QtQtQtQtQtQtQtQtQtQtQtd9e.e#eaebecedeeefegeheiejekelemeneoenepeqeresetehegeuQtQtQtQtQtQtQtQtQtQt",
"QtQtQtQtQtQtQtQtQtQtQtevewexeyebezeAeBeCeDeEeFeGeHeIeJeJeJeJeKeKeLeGeMeNeOePQtQtQtQtQtQtQtQtQtQt",
"QtQtQtQtQtQtQtQtQtQtQtQteQeReSeTeUeVeWeXeYeZe0e1e2e3e4e5e5e6e3e3e3e7e1e8e9QtQtQtQtQtQtQtQtQtQtQt",
"QtQtQtQtQtQtQtQtQtQtQtQtQtf.f#fafbfcfdfefffgfhfifjfkflfmfnfofofpflfqfrfsftQtQtQtQtQtQtQtQtQtQtQt",
"QtQtQtQtQtQtQtQtQtQtQtQtQtfufvfwfxfyfzfAfBfCfDfEfFfGfHfHfIfHfHfHfJfFfKfLQtQtQtQtQtQtQtQtQtQtQtQt",
"QtQtQtQtQtQtQtQtQtQtQtQtQtQtfMfNfOfPfQfRfSfTfUfVfWfXfYfZf0f1fZfYfYf2fVQtQtQtQtQtQtQtQtQtQtQtQtQt",
"QtQtQtQtQtQtQtQtQtQtQtQtQtQtQtQtf3f4f5f6f7f8f9g.g#gagbgbgcgcgdgbgeQtQtQtQtQtQtQtQtQtQtQtQtQtQtQt",
"QtQtQtQtQtQtQtQtQtQtQtQtQtQtQtQtQtQtgfggghgigjgkglgmgngngngngngnQtQtQtQtQtQtQtQtQtQtQtQtQtQtQtQt",
"QtQtQtQtQtQtQtQtQtQtQtQtQtQtQtQtQtQtQtQtQtgogpgqgrgsgtgnguQtQtQtQtQtQtQtQtQtQtQtQtQtQtQtQtQtQtQt",
"QtQtQtQtQtQtQtQtQtQtQtQtQtQtQtQtQtQtQtQtQtQtgvgwgxgygzQtQtQtQtQtQtQtQtQtQtQtQtQtQtQtQtQtQtQtQtQt",
"QtQtQtQtQtQtQtQtQtQtQtQtQtQtQtQtQtQtQtQtQtQtgAgBgCgDgEQtQtQtQtQtQtQtQtQtQtQtQtQtQtQtQtQtQtQtQtQt",
"QtQtQtQtQtQtQtQtQtQtQtQtQtQtQtQtQtQtQtQtgFgGgHgIgJgKgLgMQtQtQtQtQtQtQtQtQtQtQtQtQtQtQtQtQtQtQtQt",
"QtQtQtQtQtQtQtQtQtQtQtQtQtQtQtQtQtQtgNgOgPgQgRgSgTgUgVgWgXgYQtQtQtQtQtQtQtQtQtQtQtQtQtQtQtQtQtQt",
"QtQtQtQtQtQtQtQtQtQtQtQtQtQtQtQtQtgZg0g1g2g3g4g5g6g7g8g9g2h.h#haQtQtQtQtQtQtQtQtQtQtQtQtQtQtQtQt",
"QtQtQtQtQtQtQtQtQtQtQtQtQtQtQtQthbhcg1hdhehdhfhghhhihjhkhlhmhnhoQtQtQtQtQtQtQtQtQtQtQtQtQtQtQtQt",
"QtQtQtQtQtQtQtQtQtQtQtQtQtQtQthphqhrhsgPhthuhvhwhxhyhzhehAhuhuhehcQtQtQtQtQtQtQtQtQtQtQtQtQtQtQt",
"QtQtQtQtQtQtQtQtQtQtQtQtQtQtQthBhChDhEhFgPhGhHhIhJhKhLgXhuhthrhMhGhNQtQtQtQtQtQtQtQtQtQtQtQtQtQt",
"QtQtQtQtQtQtQtQtQtQtQtQtQtQthOhPhQhRhDhShrhThHhUhVhWhXhAhuhtgPhrgPhYhZQtQtQtQtQtQtQtQtQtQtQtQtQt",
"QtQtQtQtQtQtQtQtQtQtQtQtQtQth0h1gYh2hDhSgPh3hAh4h5h6h7hmh8hAhuhtgPhth9QtQtQtQtQtQtQtQtQtQtQtQtQt",
"QtQtQtQtQtQtQtQtQtQtQtQtQti.i#iah1h2ibicgXidieifigihg7g8iiijikhkh8hAhGilQtQtQtQtQtQtQtQtQtQtQtQt",
"QtQtQtQtQtQtQtQtQtQtQtQtQtiminioh1hRhFhAijipiqirisitiuiviwixiyiziiikhliAQtQtQtQtQtQtQtQtQtQtQtQt",
"QtQtQtQtQtQtQtQtQtQtQtQtiBhaiCiogYhDiDiEiygRiFiGiHiIiJiKiLiMiNiOiwiyh.hkiPQtQtQtQtQtQtQtQtQtQtQt",
"QtQtQtQtQtQtQtQtQtQtQtQtiQiRiSiahQiTikiyiUiViWiXiYiZi0i1i2i3i4i5i6i7i8i9huQtQtQtQtQtQtQtQtQtQtQt",
"QtQtQtQtQtQtQtQtQtQtQtj.j#jaiCjbjcjdiyiMjejfjgjhjijjjkjljmjnjojpjqjriMjsjtQtQtQtQtQtQtQtQtQtQtQt",
"QtQtQtQtQtQtQtQtQtQtQtjujvh0jwjxhSjyiOi5jzjAjBjCjDjEjFjGjHjIjJjKjLjMjNiMjsijQtQtQtQtQtQtQtQtQtQt",
"QtQtQtQtQtQtQtQtQtQtQtjOjPjQjRhQjSjTiLi3jUjVjWjXjYjZj0j1j2j3j4jIj5j6j7i5iMj8QtQtQtQtQtQtQtQtQtQt",
"QtQtQtQtQtQtQtQtQtQtj9k.k#kailibkbi7jqkckdkekfkgkhkikjkkklkmknkojGkpjni3kqiOQtQtQtQtQtQtQtQtQtQt",
"QtQtQtQtQtQtQtQtQtQtQtQtQtQtQtQtQtQtQtQtQtQtQtQtQtQtQtQtQtQtQtQtQtQtQtQtQtQtQtQtQtQtQtQtQtQtQtQt",
"QtQtQtQtQtQtQtQtQtQtQtQtQtQtQtQtQtQtQtQtQtQtQtQtQtQtQtQtQtQtQtQtQtQtQtQtQtQtQtQtQtQtQtQtQtQtQtQt",
"QtQtQtQtQtQtQtQtQtQtQtQtQtQtQtQtQtQtQtQtQtQtQtQtQtQtQtQtQtQtQtQtQtQtQtQtQtQtQtQtQtQtQtQtQtQtQtQt",
"QtQtQtQtQtQtQtQtQtQtQtQtQtQtQtQtQtQtQtQtQtQtQtQtQtQtQtQtQtQtQtQtQtQtQtQtQtQtQtQtQtQtQtQtQtQtQtQt"};
