/* XPM */
static const char *xpmGreatBritain[] = {
/* width height num_colors chars_per_pixel */
"    32    22      129            2",
/* colors */
".. c #000000",
".# c #6762cf",
".a c #da6666",
".b c #cc1d1d",
".c c #130bb8",
".d c #d0b4cc",
".e c #d23d3d",
".f c #352ec2",
".g c #d64e4e",
".h c #de797a",
".i c #a39cdb",
".j c #3e37c4",
".k c #554fca",
".l c #e59b9b",
".m c #b4aadb",
".n c #ddaab4",
".o c #e8aaab",
".p c #dfa3ac",
".q c #d96161",
".r c #c70707",
".s c #e18c8d",
".t c #e69f9f",
".u c #0b03b6",
".v c #e9aeaf",
".w c #aaa3de",
".x c #c80b0b",
".y c #cc1c1c",
".z c #dd7475",
".A c #db9fab",
".B c #e9b2b2",
".C c #edc3c3",
".D c #d23c3c",
".E c #d64d4d",
".F c #cd2020",
".G c #dda5b0",
".H c #b4b2e4",
".I c #1008b7",
".J c #e8e1ec",
".K c #ede2e7",
".L c #d8b1c2",
".M c #e59a9a",
".N c #1a13ba",
".O c #7873d4",
".P c #d96060",
".Q c #231cbc",
".R c #c80a0a",
".S c #d2d1ed",
".T c #8b87d9",
".U c #443dc5",
".V c #dd7374",
".W c #c4c2e9",
".X c #0800b5",
".Y c #edc2c2",
".Z c #d23b3b",
".0 c #eee3e7",
".1 c #cf2e2e",
".2 c #c60101",
".3 c #dc6c6c",
".4 c #ca1212",
".5 c #db6a6b",
".6 c #b4a8d9",
".7 c #e8a8a9",
".8 c #c70505",
".9 c #3d37c4",
"#. c #c9c7ea",
"## c #9893db",
"#a c #df7f7f",
"#b c #2f28c0",
"#c c #d2d0ec",
"#d c #e18c8e",
"#e c #e69fa0",
"#f c #0901b5",
"#g c #ce2929",
"#h c #db6767",
"#i c #d0b3cc",
"#j c #cf2d2d",
"#k c #c60000",
"#l c #e49697",
"#m c #e8a7a8",
"#n c #df7a7b",
"#o c #cd2021",
"#p c #de7a7a",
"#q c #d54d4d",
"#r c #cc2020",
"#s c #c70404",
"#t c #deabb5",
"#u c #e07e7f",
"#v c #d79fae",
"#w c #231cbd",
"#x c #0b04b6",
"#y c #c80a0b",
"#z c #8a87d9",
"#A c #b9b7e6",
"#B c #d2b6cd",
"#C c #eab3b3",
"#D c #cf2c2c",
"#E c #6560cf",
"#F c #918cd9",
"#G c #cc1f1f",
"#H c #a39cda",
"#I c #1109b8",
"#J c #c70303",
"#K c #ede1e7",
"#L c #d8b2c2",
"#M c #ca1213",
"#N c #b4a8da",
"#O c #dd7071",
"#P c #ce2727",
"#Q c #443ec5",
"#R c #dda1ac",
"#S c #cb1a1a",
"#T c #cf2b2b",
"#U c #dea7b0",
"#V c #2922be",
"#W c #e9e3ec",
"#X c #dab3c3",
"#Y c #cf2d2e",
"#Z c #d8b1c1",
"#0 c #f0dddf",
"#1 c #1b13ba",
"#2 c #de7a7b",
"#3 c #d95e5f",
"#4 c #0e06b7",
"#5 c #251ebd",
"#6 c #e49a9b",
"#7 c #e8abac",
"#8 c #2f29c0",
"#9 c #e08b8d",
"a. c #e6a0a0",
/* pixels */
"................................................................",
"..#Y#L.k.X.X.X.X.X.X.X.X.X#I#l#k#k#v.X.X.X.X.X.X.X.X.X#f.##t.F..",
"...y.8#n.i#1.X.X.X.X.X.X.X#I#l#k#k#v.X.X.X.X.X.X.X.X#5#N#h.2#P..",
"..#K.P.2.1.L.k.X.X.X.X.X.X#I#l#k#k#v.X.X.X.X.X.X#f.##t#o#J.V#W..",
"..#b.W.B.y.8#p#H#1.X.X.X.X#I#l#k#k#v.X.X.X.X.X#5.6#h.2#g.Y.H.Q..",
"...X.u.O#K.P.2#j#Z.k.X.X.X#I#l#k#k#v.X.X.X#f.#.n#r#J.V.J#E#f.X..",
"...X.X.X#8.W.B.b.8.h#H#1.X#I#l#k#k#v.X.X#5.6.a.2#g.Y.H#w.X.X.X..",
"...X.X.X.X#x.O#K.q.2#j#Z.k#I#l#k#k#v#f.#.n#r#s.z.J#E#f.X.X.X.X..",
"..#4#4#4#4#4#4.f#.#C#G.x#a.w#l#k#k#U.m.3.r#T.C#A#V#4#4#4#4#4#4..",
"..#6#6#6#6#6#6#6#6.l.l.M.M.l#3#k#k#O.l.M.M.l.l#6#6#6#6#6#6#6#6..",
"..#k#k#k#k#k#k#k#k#k#k#k#k#k#k#k#k#k#k#k#k#k#k#k#k#k#k#k#k#k#k..",
"..#k#k#k#k#k#k#k#k#k#k#k#k#k#k#k#k#k#k#k#k#k#k#k#k#k#k#k#k#k#k..",
"...A.A.A.A.A.A.A.p.v#m#e#e#7.5#k#k#u.o#e#e.7.v#R.A.A.A.A.A.A.A..",
"...X.X.X.X.X.X.j.Sa.#M.R#9###l#k#k.G.i.h.8.b#C.W#b.X.X.X.X.X.X..",
"...X.X.X.X.I#z#0.g#k.D#i.U#I#l#k#k#v.X.k#Z#j.2.q.K.O.u.X.X.X.X..",
"...X.X.X.j#c.t#M#y#9#F.c.X#I#l#k#k#v.X.X.N.i.h.8.b.B.W#b.X.X.X..",
"...X.I.T#0#q#k.D#i#Q.X.X.X#I#l#k#k#v.X.X.X.X.k#Z#j.2.P#K.O.u.X..",
"...9#c.t.4.x.s#F.c.X.X.X.X#I#l#k#k#v.X.X.X.X.X#1.i#p.8.y.B.W#8..",
"..#0.E#k.e.d.U.X.X.X.X.X.X#I#l#k#k#v.X.X.X.X.X.X.X.k.L.1.2.P.0..",
"...4.x#d#F.c.X.X.X.X.X.X.X#I#l#k#k#v.X.X.X.X.X.X.X.X#1.i#2.8#S..",
"...Z#B#Q.X.X.X.X.X.X.X.X.X#I#l#k#k#v.X.X.X.X.X.X.X.X.X.X.k#X#D..",
"................................................................"
};
