/* XPM */
static const char *xpmStats[]={
"48 48 311 2",
"Qt c None",
"#D c #000000",
"az c #015c10",
"aq c #015d11",
"ar c #015e11",
"ac c #015f11",
"ad c #016011",
"#2 c #016111",
"#J c #016211",
"bV c #016311",
"cu c #016412",
"#3 c #026412",
"a4 c #046614",
"#K c #046715",
"b7 c #056715",
"aK c #076a18",
"ab c #086117",
"#1 c #086217",
"#I c #086317",
"ca c #086a19",
"ch c #086b19",
"aQ c #096919",
"bs c #096a19",
"b5 c #0a671a",
"b0 c #0a681a",
"cn c #0a6c1b",
"bT c #0b691b",
"bZ c #0b6a1b",
"bN c #0c6a1c",
"#l c #0c6b1c",
"cX c #0d0d0d",
"bx c #0d6b1d",
"#B c #0d6c1d",
"#k c #0d6d1e",
".H c #0e0e0e",
"#A c #0e6d1e",
"aw c #0e6e1e",
"#Q c #0e6e1f",
"aB c #0e721e",
"bG c #0f6e1f",
"#z c #0f6f1f",
"co c #0f701f",
"av c #0f7020",
"aT c #0f731f",
"ap c #10611e",
"#P c #107020",
"#8 c #107120",
"#y c #107121",
"bY c #117121",
"#O c #117221",
"b4 c #117222",
"#L c #117321",
"#x c #117322",
"bA c #127222",
"aj c #127322",
"au c #127422",
"#N c #127423",
"a3 c #127522",
"#7 c #127523",
"#4 c #127623",
"bc c #127723",
"bw c #137523",
"ai c #137524",
"#M c #137624",
"ae c #137824",
"#6 c #147624",
"ah c #147725",
"aF c #157825",
"#5 c #157826",
"ag c #157926",
"aX c #167a26",
"at c #167a27",
"#w c #177327",
"af c #177b28",
"aE c #177c28",
"as c #187d29",
"aD c #187e29",
"aM c #187e2a",
"bE c #197e2a",
"aO c #197f2a",
"aW c #197f2b",
"bQ c #1a7d2b",
"ba c #1a7e2b",
"aC c #1a802b",
"bk c #1a812c",
".# c #1b1b1b",
"aV c #1b812c",
"aL c #1b822c",
"a6 c #1b822d",
"#T c #1c1c1c",
"aU c #1c832d",
"a5 c #1c842e",
".T c #1d1d1d",
"bM c #1d822e",
"bL c #1f8530",
"aH c #20652c",
"bz c #20662c",
"b2 c #20672c",
"cm c #20682c",
"bl c #218832",
"aY c #228733",
"bh c #238734",
"b3 c #238834",
"b# c #268a37",
"a7 c #268d37",
".d c #282828",
"ay c #286633",
"aa c #286833",
"#0 c #286a33",
"#H c #286b33",
"c. c #287936",
"#v c #296d35",
"cB c #2a2a2a",
"cc c #2a7d38",
"bP c #2b903d",
"aJ c #2b913d",
"bC c #2b933d",
"ci c #2c803a",
"bg c #2f9541",
"ao c #306a3a",
"cK c #307e3d",
"cC c #30803d",
"#j c #32743d",
"bp c #329a44",
"bv c #339c45",
"bB c #349a45",
"a1 c #349b45",
"bF c #359e47",
".s c #363636",
"cb c #379f48",
".A c #383838",
"cv c #388645",
"cp c #3c8a49",
"bJ c #3ca54e",
"bb c #3ca64e",
"bD c #3ca74e",
"bd c #3da74f",
"aZ c #3fa851",
"bS c #41ab53",
"a8 c #42ac54",
"cW c #444444",
"bi c #45af57",
"b6 c #468c52",
"bW c #46b158",
"b1 c #478c53",
"bU c #478d53",
".I c #484848",
"#Z c #48714f",
"#G c #48724f",
"#u c #48734f",
"bO c #488e54",
"#m c #488f54",
"#R c #499055",
"ax c #499155",
"aG c #499156",
"aN c #4eb960",
"b9 c #4eba60",
"#i c #4f7956",
"an c #507256",
"a# c #507356",
"bo c #50bd62",
".a c #515151",
"cS c #525252",
"cO c #535353",
"cJ c #545454",
"aA c #56c369",
"bt c #56c469",
".U c #585858",
"## c #595959",
"a0 c #5cca6f",
".e c #5e5e5e",
"a9 c #5ecd71",
"c0 c #5f5f5f",
"bI c #5fcd71",
"bK c #5fce72",
"bu c #5fcf72",
"bR c #60cf73",
"cA c #636363",
".9 c #637a67",
"#. c #64876a",
"cT c #666666",
"cd c #66a170",
"bj c #67d77a",
"#Y c #68796b",
"#t c #687a6b",
"cj c #68a372",
"#h c #6b7d6e",
".t c #6c6c6c",
"bf c #6cdc7f",
"bX c #6cdd7f",
".B c #6f6f6f",
"a. c #707b72",
"cL c #70a679",
"cD c #70a779",
"a2 c #70e183",
"b8 c #73e587",
"cw c #77ad80",
"cq c #78ad81",
"bH c #78ea8c",
"aS c #78eb8c",
"cZ c #7a7a7a",
"cV c #7b7b7b",
"b. c #7bee8f",
"be c #7bef8f",
".J c #808080",
"aR c #81f595",
"bn c #82f696",
"c# c #83b28b",
"bm c #83f796",
".V c #848484",
"am c #858585",
".b c #878787",
"cR c #898989",
"cP c #8a8a8a",
"aI c #8aff9e",
"cN c #8b8b8b",
"cI c #8c8c8c",
".8 c #909090",
"#X c #949494",
".m c #959595",
"#a c #969696",
"cz c #9b9b9b",
".c c #a2a2a2",
"ce c #a3c6a9",
"ck c #a4c7aa",
"cr c #a4c8ab",
".C c #a5a5a5",
".7 c #a6a6a6",
"al c #a8a8a8",
"#W c #a9a9a9",
"#s c #aaaaaa",
".S c #acacac",
"cM c #afcdb4",
"cE c #afceb4",
"cY c #b0b0b0",
"cU c #b1b1b1",
"cQ c #b2b2b2",
"cx c #b3d1b9",
"#U c #b7b7b7",
".K c #b9b9b9",
".2 c #bababa",
".1 c #bbbbbb",
".6 c #bcbcbc",
".f c #bdbdbd",
".r c #bebebe",
"#r c #bfbfbf",
"#f c #c0c0c0",
"#E c #c1c1c1",
"#p c #c2c2c2",
".3 c #c3c3c3",
"cH c #c4c4c4",
".l c #c5c5c5",
".O c #c6c6c6",
".x c #c7c7c7",
"#V c #c8c8c8",
"#F c #c9c9c9",
"#q c #cacaca",
".n c #cbcbcb",
"by c #cccccc",
"br c #cdcdcd",
".q c #cecece",
".P c #cfcfcf",
".F c #d0d0d0",
".y c #d1d1d1",
".R c #d2d2d2",
"#e c #d3d3d3",
"#g c #d4d4d4",
".4 c #d5d5d5",
".5 c #d6d6d6",
".Q c #d7d7d7",
".G c #d8d8d8",
".g c #d9d9d9",
".z c #dadada",
".D c #dbdbdb",
"#S c #dcdcdc",
".u c #dddddd",
"aP c #dedede",
".M c #dfdfdf",
".h c #e0e0e0",
"cf c #e0ece2",
".L c #e1e1e1",
".p c #e2e2e2",
"ct c #e3e3e3",
"#9 c #e4e4e4",
"cs c #e5e5e5",
".X c #e6e6e6",
".v c #e7e7e7",
".W c #e8e8e8",
".i c #e9e9e9",
"ak c #eaeaea",
"cG c #ebebeb",
"#d c #ececec",
".Y c #ededed",
"#c c #eeeeee",
"#b c #efefef",
"cF c #eff5f0",
".w c #f0f0f0",
"cy c #f0f5f1",
".N c #f1f1f1",
"#n c #f2f2f2",
".j c #f3f3f3",
".Z c #f4f4f4",
".o c #f5f5f5",
"#C c #f6f6f6",
"bq c #f7f7f7",
"#o c #f8f8f8",
".E c #fafafa",
".0 c #fbfbfb",
".k c #fcfcfc",
"cl c #fdfdfd",
"cg c #ffffff",
"QtQtQtQtQtQtQtQtQtQtQtQtQtQtQtQtQtQtQtQtQtQtQtQtQtQtQtQtQtQtQtQtQtQtQtQtQtQtQtQtQtQtQtQtQtQtQtQt",
"QtQtQtQtQtQtQtQtQtQtQtQtQtQtQtQtQtQtQtQtQtQtQtQtQtQtQtQtQtQtQtQtQtQtQtQtQtQtQtQtQtQtQtQtQtQtQtQt",
"QtQtQtQtQtQtQtQtQtQtQtQtQtQtQtQtQtQtQtQtQtQtQtQtQtQtQtQtQtQtQtQtQtQtQtQtQtQtQtQtQtQtQtQtQtQtQtQt",
"QtQtQtQtQtQtQtQtQtQtQtQtQtQtQtQtQtQtQtQtQtQtQtQtQtQtQtQtQtQtQtQtQtQtQtQtQtQtQtQtQtQtQtQtQtQtQtQt",
"QtQtQtQtQtQtQtQtQtQtQtQtQtQtQtQtQtQtQtQtQtQtQtQtQtQtQtQtQtQtQtQtQtQtQtQtQtQtQtQtQtQtQtQtQtQtQtQt",
"QtQtQtQtQtQtQtQtQtQtQtQtQtQtQtQtQtQtQtQtQtQtQtQtQtQtQtQtQtQtQtQtQtQtQt.#.a.b.c.c.aQtQtQtQtQtQtQt",
"QtQtQtQtQtQtQtQtQtQtQtQtQtQtQtQtQtQtQtQtQtQtQtQtQtQtQtQtQtQtQt.d.e.b.f.g.g.h.i.j.k.lQtQtQtQtQtQt",
"QtQtQtQtQtQtQtQtQtQtQtQtQtQtQtQtQtQtQtQtQtQtQtQtQtQtQt.d.e.m.n.g.g.h.i.j.k.o.p.q.r.lQtQtQtQtQtQt",
"QtQtQtQtQtQtQtQtQtQtQtQtQtQtQtQtQtQtQtQtQtQtQt.s.t.c.g.g.g.u.v.w.k.o.p.q.r.f.x.y.g.zQtQtQtQtQtQt",
"QtQtQtQtQtQtQtQtQtQtQtQtQtQtQtQtQtQtQt.A.B.C.D.z.g.u.v.w.E.o.p.q.f.f.x.F.G.G.g.g.z.zQtQtQtQtQtQt",
"QtQtQtQtQtQtQtQtQtQtQtQtQtQt.H.I.J.K.p.L.M.p.i.N.E.o.p.q.f.f.O.P.Q.Q.Q.G.R.f.S.u.z.zQtQtQtQtQtQt",
"QtQtQtQtQtQtQtQtQtQt.T.U.V.r.W.v.X.W.Y.Z.0.E.p.q.1.2.3.q.4.5.5.Q.y.6.7.8.J.9#..Y.z.DQtQtQtQtQtQt",
"QtQtQtQtQtQtQt###a.R#b#c#d#d.w.o.k.E.X#e#f.2.3.n#g.4.4.4.5.1.7.8.J#h#i#j#k#l#m.o.D.DQtQtQtQtQtQt",
"QtQtQtQtQtQt.c.Y#b#n.o#o.0.E.X#e#f.2#p#q#e#e#g#g.4#r#s.m.J#t#u#v#w#x#y#z#A#B#m#C.D.DQtQtQtQtQtQt",
"QtQtQtQtQt#D.i#d.0.E.X#e#f.K#E#F.R.R.R#e#e#r#s.m.J#t#G#H#I#J#K#L#M#N#O#P#Q#B#R#C.D#SQtQtQtQtQtQt",
"QtQtQtQtQt#T.X#c.u#U#E#V.F.y.y.R.R.r#W#X.J#Y#Z#0#1#2#2#J#J#3#4#5#6#7#x#8#z#A#R#C#S#SQtQtQtQtQtQt",
"QtQtQtQtQt#D#9#d.G#V.F.F.y.6#W#X.Ja.a#aaabacacadad#2#2#J#3aeafagahaiaj#y#z#A#R#C#S#SQtQtQtQtQtQt",
"QtQtQtQtQt#D.Lak.G#V.Falama.anaoapaqararacacadad#2#2#J#Jaeasafatah#Mau#Oavawax#C#S.uQtQtQtQtQtQt",
"QtQtQtQtQt#D.M.W.G#F.y#XayazazaqaqararacaAadadad#2#2#JaBaCaDaEataF#M#N#OavawaG#C.u.uQtQtQtQtQtQt",
"QtQtQtQtQt#D#S.X.G#F.y#XaHazazaqaqararajaIaJad#2#2#JaKaLaCaMaEataF#M#N#OavawaG#C.u.uQtQtQtQtQtQt",
"QtQtQtQtQt#D.z#9.G#F.y#XaHazaqaqararacaNaIaN#2#2#J#3aOaLaCaDaEataF#M#N#OavawaG#C.uaPQtQtQtQtQtQt",
"QtQtQtQtQt#D.Q.p.G#F.R#XaHazaqaqararaQaRaIaS#2#2#JaTaUaVaWasafaXahaYaZa0avawax#CaPaPQtQtQtQtQtQt",
"QtQtQtQtQt#D#g.h.G#q.R#XaHaqaqararaca1aIa2aIa3#Ja4a5a6aCaOa7a8a9b.aIaIaIb##A#R#CaPaPQtQtQtQtQtQt",
"QtQtQtQtQt#D.RaP.G#q.R#XaHaqaqararaca2aSbaaIbb#Jbca6aVbdbeaIaIaIbfaNbg#8#z#A#R#CaP.MQtQtQtQtQtQt",
"QtQtQtQtQt#D.P.u.G#q#e#XaHaqararacbhaIbi#2aSbja4aLbkblbmbnbobpah#M#N#O#P#Q#B#Rbq.M.MQtQtQtQtQtQt",
"QtQtQtQtQt#Dbr.D.G#q#e.maHarararacaAaIbs#2btaIasaCaWbuaIbvat#5#6bw#x#y#z#Abx#mbq.M.MQtQtQtQtQtQt",
"QtQtQtQtQt#Dby.g.G#q#e.mbzbAbBaAaSaIaA#2#2bCaIbDbEbFaIa9at#5ahaiau#O#PbG#k#l#mbq.M.hQtQtQtQtQtQt",
"QtQtQtQtQt#Dby.G.G.n#g.mbzbHaIaRbIbJbs#2#2#JaIbKbLb.bnbM#5ah#M#N#x#8#z#A#BbNbObq.h.hQtQtQtQtQtQt",
"QtQtQtQtQt#Dby.G.G.n#g.mbzbPbQacadad#2#2#J#JbRbnboaIbS#5ah#M#N#x#yav#Q#B#lbTbUbq.h.hQtQtQtQtQtQt",
"QtQtQtQtQt#Dby.G.G.n#g.mbzacacadad#2#2#J#JbVbWaIaIbXah#6ai#N#xbY#P#z#AbxbZb0b1bq.h.LQtQtQtQtQtQt",
"QtQtQtQtQt#Dby.G.Gby.4.mb2acacadad#2#2#J#J#3b3aIbnaYai#7aub4#yav#z#A#BbNbTb5b6bq.L.LQtQtQtQtQtQt",
"QtQtQtQtQt#Dby.G.Gby.4.mb2acadad#2#2#J#JbVb7#Mb8b9#Nau#x#O#8avbG#A#BbNbTb5c.c#bq.L.LQtQtQtQtQtQt",
"QtQtQtQtQt#Dby.G.Gby.4.mb2acadad#2#2#J#JbVcaaucb#x#O#O#y#P#zaw#A#Bcccdcecfcgbq#d.L.pQtQtQtQtQtQt",
"QtQtQtQtQt#Dby.G.Gbr.5.mb2adad#2#2#J#JbVbVch#y#y#8#Pav#z#Qcicjckcfcl.o.Y.W.L.L.L.p.pQtQtQtQtQtQt",
"QtQtQtQtQt#Dby.G.Gbr.5.mcmadad#2#2#J#JbVbVcnco#z#zcpcqcrcf.k.Z.Ycs.M.h.h.L.L.L.p.pctQtQtQtQtQtQt",
"QtQtQtQtQt#Dby.G.Gbr.Q.mcmad#2#2#J#JbVbVcucvcwcxcy.k.Z#d#9aPaP.M.M.h.h.L.L.L.lczcAcBQtQtQtQtQtQt",
"QtQtQtQtQt#Dby.G.Gbr.Q.mcmad#2#2#JcCcDcEcF.E.ZcGct.u.uaPaPaP.M.M.h.hcHcIcJ#TQtQtQtQtQtQtQtQtQtQt",
"QtQtQtQtQt#Dby.G.Gbr.Q#acmcKcLcMcF.E.N.W.M#S#S#S.u.uaPaPaP.M.3cIcJ#TQtQtQtQtQtQtQtQtQtQtQtQtQtQt",
"QtQtQtQtQt#Dby.G.G.q.G#fbq.E.N.vaP.z.D.D#S#S#S.u.uaP#pcNcO.#QtQtQtQtQtQtQtQtQtQtQtQtQtQtQtQtQtQt",
"QtQtQtQtQt#Dby.G.G.q.G.D.u.g.z.z.z.D.D#S#S#S#EcPcO.#QtQtQtQtQtQtQtQtQtQtQtQtQtQtQtQtQtQtQtQtQtQt",
"QtQtQtQtQtQtcQ.G.G.q.G.g.g.g.z.z.D.DcQcRcS.#QtQtQtQtQtQtQtQtQtQtQtQtQtQtQtQtQtQtQtQtQtQtQtQtQtQt",
"QtQtQtQtQtQtcT.G.G.q.g.g.g.zcUcVcWcXQtQtQtQtQtQtQtQtQtQtQtQtQtQtQtQtQtQtQtQtQtQtQtQtQtQtQtQtQtQt",
"QtQtQtQtQtQtQt.C.G.PcYcZcWcXQtQtQtQtQtQtQtQtQtQtQtQtQtQtQtQtQtQtQtQtQtQtQtQtQtQtQtQtQtQtQtQtQtQt",
"QtQtQtQtQtQtQtQtc0QtQtQtQtQtQtQtQtQtQtQtQtQtQtQtQtQtQtQtQtQtQtQtQtQtQtQtQtQtQtQtQtQtQtQtQtQtQtQt",
"QtQtQtQtQtQtQtQtQtQtQtQtQtQtQtQtQtQtQtQtQtQtQtQtQtQtQtQtQtQtQtQtQtQtQtQtQtQtQtQtQtQtQtQtQtQtQtQt",
"QtQtQtQtQtQtQtQtQtQtQtQtQtQtQtQtQtQtQtQtQtQtQtQtQtQtQtQtQtQtQtQtQtQtQtQtQtQtQtQtQtQtQtQtQtQtQtQt",
"QtQtQtQtQtQtQtQtQtQtQtQtQtQtQtQtQtQtQtQtQtQtQtQtQtQtQtQtQtQtQtQtQtQtQtQtQtQtQtQtQtQtQtQtQtQtQtQt",
"QtQtQtQtQtQtQtQtQtQtQtQtQtQtQtQtQtQtQtQtQtQtQtQtQtQtQtQtQtQtQtQtQtQtQtQtQtQtQtQtQtQtQtQtQtQtQtQt"};
